<svg width="1810" height="154" viewBox="0 0 1810 154" fill="none" xmlns="http://www.w3.org/2000/svg">
<rect width="1810" height="154" fill="#316DDC"/>
<mask id="mask0_1175_52120" style="mask-type:luminance" maskUnits="userSpaceOnUse" x="0" y="0" width="1810" height="154">
<path d="M0 154L1810 154V0.900589L0 0.900589V154Z" fill="white"/>
</mask>
<g mask="url(#mask0_1175_52120)">
<path d="M376.263 89.6787L280.655 166.183L249.015 171.772L376.263 89.6787Z" stroke="#4E97FA" stroke-width="2.28" stroke-linecap="round" stroke-linejoin="round"/>
<path d="M279.976 152.089L271.665 137.333L353.104 104.57" stroke="#4E97FA" stroke-width="2.28" stroke-linecap="round" stroke-linejoin="round"/>
<path d="M288.787 160.105L292.126 166.536L372.612 92.7856" stroke="#4E97FA" stroke-width="2.28" stroke-linecap="round" stroke-linejoin="round"/>
<path d="M376.084 89.7056L292.126 166.536L326.473 155.757L376.084 89.7056Z" stroke="#4E97FA" stroke-width="2.28" stroke-linecap="round" stroke-linejoin="round"/>
<path d="M1161.28 87.1606L1058.4 18.1109L1046.81 -7.98535L1161.28 87.1606Z" stroke="#4E97FA" stroke-width="2.28" stroke-linecap="round" stroke-linejoin="round"/>
<path d="M1074.33 15.2122L1089.77 5.68311L1140.51 69.8414" stroke="#4E97FA" stroke-width="2.28" stroke-linecap="round" stroke-linejoin="round"/>
<path d="M1066.65 24.062L1059.89 27.9751L1157.16 84.5608" stroke="#4E97FA" stroke-width="2.28" stroke-linecap="round" stroke-linejoin="round"/>
<path d="M1161.22 87.0156L1059.89 27.9751L1077.81 55.5297L1161.22 87.0156Z" stroke="#4E97FA" stroke-width="2.28" stroke-linecap="round" stroke-linejoin="round"/>
<path d="M1810.8 192.732L1707.91 123.683L1696.33 97.5864L1810.8 192.732Z" stroke="#4E97FA" stroke-width="2.28" stroke-linecap="round" stroke-linejoin="round"/>
<path d="M1723.84 120.784L1739.29 111.255L1790.02 175.413" stroke="#4E97FA" stroke-width="2.28" stroke-linecap="round" stroke-linejoin="round"/>
<path d="M1716.17 129.634L1709.4 133.547L1806.67 190.133" stroke="#4E97FA" stroke-width="2.28" stroke-linecap="round" stroke-linejoin="round"/>
<path d="M1810.75 192.587L1709.4 133.547L1727.33 161.102L1810.75 192.587Z" stroke="#4E97FA" stroke-width="2.28" stroke-linecap="round" stroke-linejoin="round"/>
<path d="M874.634 170.042L998.986 136.726L1030.32 143.492L874.634 170.042Z" stroke="#4E97FA" stroke-width="2.28" stroke-linecap="round" stroke-linejoin="round"/>
<path d="M992.59 149.688L992.731 166.111L902.943 165.259" stroke="#4E97FA" stroke-width="2.28" stroke-linecap="round" stroke-linejoin="round"/>
<path d="M988.627 139.163L988.807 132.125L879.463 168.611" stroke="#4E97FA" stroke-width="2.28" stroke-linecap="round" stroke-linejoin="round"/>
<path d="M874.803 170.087L988.807 132.125L952.46 129.018L874.803 170.087Z" stroke="#4E97FA" stroke-width="2.28" stroke-linecap="round" stroke-linejoin="round"/>
<path d="M656.899 65.847L718.906 96.7259C725.434 85.1226 733.48 72.396 743.395 59.0716C753.753 45.1584 764.281 33.1112 774.186 22.8574C753.206 12.2414 732.226 1.62533 711.246 -8.99072C702.067 -0.657303 691.784 9.97686 681.917 23.1111C670.116 38.8087 662.229 53.6458 656.909 65.847H656.899Z" stroke="#4E97FA" stroke-width="2.28" stroke-linecap="round" stroke-linejoin="round"/>
<path d="M672.889 58.8813L717.047 81.0011" stroke="#4E97FA" stroke-width="2.28" stroke-linecap="round" stroke-linejoin="round"/>
<path d="M677.285 48.5005L721.443 70.6293" stroke="#4E97FA" stroke-width="2.28" stroke-linecap="round" stroke-linejoin="round"/>
<path d="M709.321 9.34277L753.479 31.4626" stroke="#4E97FA" stroke-width="2.28" stroke-linecap="round" stroke-linejoin="round"/>
<path d="M699.935 18.6182L744.093 40.747" stroke="#4E97FA" stroke-width="2.28" stroke-linecap="round" stroke-linejoin="round"/>
<path d="M691.2 28.6548L735.358 50.7746" stroke="#4E97FA" stroke-width="2.28" stroke-linecap="round" stroke-linejoin="round"/>
<path d="M683.228 38.7905L727.386 60.9103" stroke="#4E97FA" stroke-width="2.28" stroke-linecap="round" stroke-linejoin="round"/>
<path d="M1229.01 73.0571L1221.67 118.71C1236.04 116.708 1252.14 114.96 1269.58 113.882C1287.79 112.768 1304.16 112.587 1318.47 112.922C1321.12 97.3961 1323.78 81.8706 1326.43 66.3451C1314.37 65.5027 1299.53 65.1585 1282.3 66.1639C1261.71 67.3686 1243.52 70.1676 1229.01 73.0571Z" stroke="#4E97FA" stroke-width="2.28" stroke-linecap="round" stroke-linejoin="round"/>
<path d="M1242.34 77.9849L1236.98 110.558" stroke="#4E97FA" stroke-width="2.28" stroke-linecap="round" stroke-linejoin="round"/>
<path d="M1254.62 75.4575L1249.26 108.03" stroke="#4E97FA" stroke-width="2.28" stroke-linecap="round" stroke-linejoin="round"/>
<path d="M1307 73.7817L1301.64 106.355" stroke="#4E97FA" stroke-width="2.28" stroke-linecap="round" stroke-linejoin="round"/>
<path d="M1293.89 73.2656L1288.54 105.838" stroke="#4E97FA" stroke-width="2.28" stroke-linecap="round" stroke-linejoin="round"/>
<path d="M1280.27 73.4287L1274.91 106.002" stroke="#4E97FA" stroke-width="2.28" stroke-linecap="round" stroke-linejoin="round"/>
<path d="M1266.84 74.0264L1261.48 106.599" stroke="#4E97FA" stroke-width="2.28" stroke-linecap="round" stroke-linejoin="round"/>
<path d="M57.091 36.4445L82.6745 76.8706C92.825 67.8307 104.532 58.1114 117.786 48.2381C131.625 37.93 144.643 29.3249 156.35 22.1871C147.775 8.35544 139.2 -5.46716 130.625 -19.2988C120.361 -13.7372 108.22 -6.3458 95.089 3.37351C79.3917 14.9859 66.732 26.6256 57.0815 36.4445H57.091Z" stroke="#4E97FA" stroke-width="2.28" stroke-linecap="round" stroke-linejoin="round"/>
<path d="M71.1846 33.5098L89.3346 62.414" stroke="#4E97FA" stroke-width="2.28" stroke-linecap="round" stroke-linejoin="round"/>
<path d="M79.2974 25.1309L97.4568 54.0442" stroke="#4E97FA" stroke-width="2.28" stroke-linecap="round" stroke-linejoin="round"/>
<path d="M120.164 -3.28418L138.323 25.6201" stroke="#4E97FA" stroke-width="2.28" stroke-linecap="round" stroke-linejoin="round"/>
<path d="M109.296 3.07471L127.446 31.979" stroke="#4E97FA" stroke-width="2.28" stroke-linecap="round" stroke-linejoin="round"/>
<path d="M98.4761 10.2485L116.626 39.1619" stroke="#4E97FA" stroke-width="2.28" stroke-linecap="round" stroke-linejoin="round"/>
<path d="M88.1084 17.6675L106.268 46.5808" stroke="#4E97FA" stroke-width="2.28" stroke-linecap="round" stroke-linejoin="round"/>
<path d="M548.075 82.9575V93.1841" stroke="#4E97FA" stroke-width="2.28" stroke-linecap="round" stroke-linejoin="round"/>
<path d="M553.98 88.0664H542.169" stroke="#4E97FA" stroke-width="2.28" stroke-linecap="round" stroke-linejoin="round"/>
<path d="M982.864 44.0078V54.2344" stroke="#4E97FA" stroke-width="2.28" stroke-linecap="round" stroke-linejoin="round"/>
<path d="M988.769 49.1167H976.958" stroke="#4E97FA" stroke-width="2.28" stroke-linecap="round" stroke-linejoin="round"/>
<path d="M1271.28 134.498V144.725" stroke="#4E97FA" stroke-width="2.28" stroke-linecap="round" stroke-linejoin="round"/>
<path d="M1277.19 139.616H1265.38" stroke="#4E97FA" stroke-width="2.28" stroke-linecap="round" stroke-linejoin="round"/>
<path d="M248.836 65.8379V93.3201" stroke="#4E97FA" stroke-width="4.56" stroke-linecap="round" stroke-linejoin="round"/>
<path d="M264.703 79.5791H232.969" stroke="#4E97FA" stroke-width="4.56" stroke-linecap="round" stroke-linejoin="round"/>
<path d="M1493.42 58.0117V85.4939" stroke="#4E97FA" stroke-width="4.56" stroke-linecap="round" stroke-linejoin="round"/>
<path d="M1509.29 71.7529H1477.55" stroke="#4E97FA" stroke-width="4.56" stroke-linecap="round" stroke-linejoin="round"/>
<path d="M67.8926 111.056L50.9878 102.079L66.553 132.777L1.95264 164.326" stroke="#4E97FA" stroke-width="4.56" stroke-linecap="round" stroke-linejoin="round"/>
<path d="M1807.98 32.1235L1794.77 19.3154L1799.5 52.5948L1727.15 66.7435" stroke="#4E97FA" stroke-width="4.56" stroke-linecap="round" stroke-linejoin="round"/>
<path d="M614.71 142.93L608.811 154.003L589.191 144.367L616.275 93.5254L628.882 99.7177L607.698 139.486L614.71 142.93Z" fill="#4E97FA"/>
<path d="M1427.2 59.5777L1421.3 70.6514L1401.68 61.0151L1428.76 10.1734L1441.37 16.3657L1420.18 56.1336L1427.2 59.5777Z" fill="#4E97FA"/>
<path d="M474.673 121.563H457.948" stroke="#4E97FA" stroke-width="4.56" stroke-linecap="round" stroke-linejoin="round"/>
<path d="M20.8287 87.4595H4.09375" stroke="#4E97FA" stroke-width="4.56" stroke-linecap="round" stroke-linejoin="round"/>
<path d="M411.36 19.1446L412.504 19.1732L412.522 18.6421L412.101 18.301L411.36 19.1446ZM411.279 22.2275L412.424 22.2346L410.142 22.1075L411.279 22.2275ZM411.417 37.9802L412.561 37.9336L412.56 37.9239L411.417 37.9802ZM413.105 49.0971L414.209 48.7998L413.105 49.0971ZM422.806 58.9838L422.822 57.8835L422.822 57.8835L422.806 58.9838ZM428.537 51.7408L429.654 51.4957L429.653 51.4898L428.537 51.7408ZM424.72 46.5173L423.847 45.8108L423.106 46.6544L423.979 47.361L424.72 46.5173ZM433.321 36.7234L434.082 35.8967L433.207 35.1532L432.448 36.0169L433.321 36.7234ZM440.163 45.9194L441.25 45.5702L441.248 45.5635L441.246 45.5569L440.163 45.9194ZM440.576 55.4967L441.682 55.7741L441.684 55.7668L440.576 55.4967ZM422.589 71.9104L422.506 70.8135L422.496 70.8143L422.589 71.9104ZM401.236 53.4011L400.112 53.6171L400.113 53.6228L401.236 53.4011ZM400.003 33.5119L401.147 33.5571L401.307 30.3268L399.131 32.8054L400.003 33.5119ZM385.928 49.5383L385.188 50.3819L386.06 51.0885L386.801 50.2449L385.928 49.5383ZM377.395 42.6283L376.522 41.9218L375.781 42.7654L376.654 43.4719L377.395 42.6283ZM403.563 12.8311L404.304 11.9875L403.431 11.281L402.691 12.1246L403.563 12.8311ZM410.216 19.1159C410.178 20.2364 410.152 21.0568 410.138 21.5751C410.132 21.8319 410.128 22.0229 410.127 22.1404C410.127 22.1792 410.126 22.2648 410.132 22.3369C410.133 22.3509 410.136 22.3744 410.14 22.4031C410.142 22.4221 410.152 22.4877 410.177 22.5682C410.188 22.6048 410.218 22.6947 410.279 22.7984C410.316 22.8609 410.5 23.169 410.922 23.2977C411.478 23.4672 411.903 23.1915 412.071 23.034C412.221 22.8938 412.292 22.7498 412.312 22.7076C412.364 22.602 412.385 22.5121 412.389 22.4949C412.398 22.4611 412.403 22.4335 412.406 22.4185C412.411 22.3876 412.414 22.3613 412.416 22.3474L410.142 22.1075C410.142 22.1051 410.144 22.0881 410.149 22.064C410.151 22.0524 410.155 22.0276 410.163 21.9961C410.167 21.9811 410.188 21.8928 410.239 21.7883C410.259 21.7466 410.33 21.603 410.479 21.463C410.647 21.3057 411.072 21.03 411.628 21.1995C412.049 21.3281 412.233 21.636 412.27 21.6981C412.331 21.8015 412.36 21.8909 412.371 21.9268C412.396 22.006 412.405 22.0697 412.407 22.0862C412.411 22.1123 412.413 22.1328 412.414 22.1431C412.418 22.1856 412.416 22.2038 412.416 22.1372C412.417 22.0441 412.42 21.8729 412.427 21.6159C412.44 21.1065 412.466 20.293 412.504 19.1732L410.216 19.1159ZM410.135 22.2203C410.044 28.7921 410.09 34.0667 410.273 38.0364L412.56 37.9239C412.38 34.0149 412.333 28.7878 412.424 22.2346L410.135 22.2203ZM410.273 38.0268C410.423 42.0808 410.997 45.8714 412 49.3943L414.209 48.7998C413.257 45.4581 412.706 41.8374 412.561 37.9336L410.273 38.0268ZM412 49.3943C413.022 52.9808 414.716 55.8066 417.145 57.7737L418.627 56.0864C416.636 54.4742 415.143 52.078 414.209 48.7998L412 49.3943ZM417.145 57.7737C418.951 59.2356 420.838 60.0716 422.791 60.0842L422.822 57.8835C421.571 57.8753 420.178 57.3421 418.627 56.0864L417.145 57.7737ZM422.791 60.0842C424.823 60.0974 426.586 59.1311 428.062 57.4504L426.317 56.0373C425.152 57.364 423.992 57.8911 422.822 57.8835L422.791 60.0842ZM428.062 57.4504C429.603 55.6964 430.158 53.6799 429.654 51.4957L427.419 51.9859C427.76 53.4651 427.418 54.784 426.317 56.0373L428.062 57.4504ZM429.653 51.4898C429.161 49.4107 427.69 47.4791 425.461 45.6737L423.979 47.361C426.006 49.0023 427.08 50.553 427.42 51.9918L429.653 51.4898ZM425.592 47.2239L434.194 37.43L432.448 36.0169L423.847 45.8108L425.592 47.2239ZM432.56 37.5502C435.863 40.3556 438.007 43.2701 439.079 46.282L441.246 45.5569C440.015 42.0997 437.599 38.8836 434.082 35.8967L432.56 37.5502ZM439.075 46.2686C440.128 49.3586 440.25 52.3359 439.468 55.2267L441.684 55.7668C442.584 52.436 442.43 49.0284 441.25 45.5702L439.075 46.2686ZM439.47 55.2193C438.642 58.1977 437.092 60.994 434.793 63.6114L436.538 65.0245C439.035 62.1811 440.758 59.0965 441.682 55.7741L439.47 55.2193ZM434.793 63.6114C430.777 68.1844 426.678 70.4924 422.506 70.8135L422.673 73.0073C427.665 72.6231 432.283 69.8695 436.538 65.0245L434.793 63.6114ZM422.496 70.8143C418.224 71.1772 414.203 69.8715 410.389 66.7833L408.907 68.4705C413.115 71.8781 417.721 73.428 422.682 73.0065L422.496 70.8143ZM410.389 66.7833C406.226 63.4124 403.542 58.8991 402.358 53.1794L400.113 53.6228C401.387 59.7786 404.311 64.7491 408.907 68.4705L410.389 66.7833ZM402.359 53.1852C401.192 47.383 400.784 40.8431 401.147 33.5571L398.86 33.4668C398.49 40.8906 398.903 47.6101 400.112 53.6171L402.359 53.1852ZM399.131 32.8054L385.056 48.8318L386.801 50.2449L400.876 34.2185L399.131 32.8054ZM386.669 48.6947L378.135 41.7847L376.654 43.4719L385.188 50.3819L386.669 48.6947ZM378.267 43.3349L404.436 13.5377L402.691 12.1246L376.522 41.9218L378.267 43.3349ZM402.822 13.6747L410.619 19.9882L412.101 18.301L404.304 11.9875L402.822 13.6747Z" fill="#4E97FA"/>
<path d="M1512.6 117.198L1513.75 117.227L1513.77 116.696L1513.35 116.355L1512.6 117.198ZM1512.52 120.281L1513.67 120.288L1511.39 120.161L1512.52 120.281ZM1512.66 136.034L1513.81 135.987L1513.81 135.978L1512.66 136.034ZM1514.35 147.151L1515.45 146.854L1514.35 147.151ZM1524.05 157.038L1524.07 155.937L1524.07 155.937L1524.05 157.038ZM1529.78 149.795L1530.9 149.549L1530.9 149.544L1529.78 149.795ZM1525.96 144.571L1525.09 143.864L1524.35 144.708L1525.22 145.415L1525.96 144.571ZM1534.57 134.777L1535.33 133.95L1534.45 133.207L1533.69 134.071L1534.57 134.777ZM1541.41 143.973L1542.5 143.624L1542.49 143.617L1542.49 143.611L1541.41 143.973ZM1541.82 153.55L1542.93 153.828L1542.93 153.82L1541.82 153.55ZM1523.83 169.964L1523.75 168.867L1523.74 168.868L1523.83 169.964ZM1502.48 151.455L1501.36 151.671L1501.36 151.677L1502.48 151.455ZM1501.25 131.566L1502.39 131.611L1502.55 128.38L1500.38 130.859L1501.25 131.566ZM1487.17 147.592L1486.43 148.436L1487.3 149.142L1488.05 148.299L1487.17 147.592ZM1478.64 140.682L1477.77 139.975L1477.03 140.819L1477.9 141.526L1478.64 140.682ZM1504.81 110.885L1505.55 110.041L1504.68 109.335L1503.94 110.178L1504.81 110.885ZM1511.46 117.17C1511.42 118.29 1511.4 119.111 1511.38 119.629C1511.38 119.886 1511.37 120.077 1511.37 120.194C1511.37 120.233 1511.37 120.319 1511.38 120.391C1511.38 120.405 1511.38 120.428 1511.38 120.457C1511.39 120.476 1511.4 120.541 1511.42 120.622C1511.43 120.658 1511.46 120.748 1511.52 120.852C1511.56 120.915 1511.74 121.223 1512.17 121.351C1512.72 121.521 1513.15 121.245 1513.32 121.088C1513.47 120.947 1513.54 120.804 1513.56 120.761C1513.61 120.656 1513.63 120.566 1513.63 120.549C1513.64 120.515 1513.65 120.487 1513.65 120.472C1513.66 120.441 1513.66 120.415 1513.66 120.401L1511.39 120.161C1511.39 120.159 1511.39 120.142 1511.39 120.118C1511.4 120.106 1511.4 120.081 1511.41 120.05C1511.41 120.035 1511.43 119.946 1511.48 119.842C1511.5 119.8 1511.57 119.657 1511.72 119.517C1511.89 119.359 1512.32 119.084 1512.87 119.253C1513.29 119.382 1513.48 119.69 1513.51 119.752C1513.58 119.855 1513.6 119.945 1513.62 119.981C1513.64 120.06 1513.65 120.123 1513.65 120.14C1513.66 120.166 1513.66 120.187 1513.66 120.197C1513.66 120.239 1513.66 120.258 1513.66 120.191C1513.66 120.098 1513.66 119.927 1513.67 119.67C1513.68 119.16 1513.71 118.347 1513.75 117.227L1511.46 117.17ZM1511.38 120.274C1511.29 126.846 1511.33 132.12 1511.52 136.09L1513.81 135.978C1513.62 132.069 1513.58 126.841 1513.67 120.288L1511.38 120.274ZM1511.52 136.08C1511.67 140.134 1512.24 143.925 1513.24 147.448L1515.45 146.854C1514.5 143.512 1513.95 139.891 1513.81 135.987L1511.52 136.08ZM1513.24 147.448C1514.27 151.035 1515.96 153.86 1518.39 155.827L1519.87 154.14C1517.88 152.528 1516.39 150.132 1515.45 146.854L1513.24 147.448ZM1518.39 155.827C1520.2 157.289 1522.08 158.125 1524.04 158.138L1524.07 155.937C1522.82 155.929 1521.42 155.396 1519.87 154.14L1518.39 155.827ZM1524.04 158.138C1526.07 158.151 1527.83 157.185 1529.31 155.504L1527.56 154.091C1526.4 155.418 1525.24 155.945 1524.07 155.937L1524.04 158.138ZM1529.31 155.504C1530.85 153.75 1531.4 151.734 1530.9 149.549L1528.66 150.04C1529 151.519 1528.66 152.838 1527.56 154.091L1529.31 155.504ZM1530.9 149.544C1530.41 147.464 1528.94 145.533 1526.71 143.727L1525.22 145.415C1527.25 147.056 1528.32 148.607 1528.67 150.045L1530.9 149.544ZM1526.84 145.278L1535.44 135.484L1533.69 134.071L1525.09 143.864L1526.84 145.278ZM1533.8 135.604C1537.11 138.409 1539.25 141.324 1540.32 144.336L1542.49 143.611C1541.26 140.153 1538.84 136.937 1535.33 133.95L1533.8 135.604ZM1540.32 144.322C1541.37 147.412 1541.49 150.39 1540.71 153.28L1542.93 153.82C1543.83 150.49 1543.67 147.082 1542.5 143.624L1540.32 144.322ZM1540.71 153.273C1539.89 156.251 1538.34 159.048 1536.04 161.665L1537.78 163.078C1540.28 160.235 1542 157.15 1542.93 153.828L1540.71 153.273ZM1536.04 161.665C1532.02 166.238 1527.92 168.546 1523.75 168.867L1523.92 171.061C1528.91 170.677 1533.53 167.923 1537.78 163.078L1536.04 161.665ZM1523.74 168.868C1519.47 169.231 1515.45 167.925 1511.63 164.837L1510.15 166.524C1514.36 169.932 1518.97 171.482 1523.93 171.06L1523.74 168.868ZM1511.63 164.837C1507.47 161.466 1504.79 156.953 1503.6 151.233L1501.36 151.677C1502.63 157.832 1505.56 162.803 1510.15 166.524L1511.63 164.837ZM1503.6 151.239C1502.44 145.437 1502.03 138.897 1502.39 131.611L1500.1 131.52C1499.73 138.944 1500.15 145.664 1501.36 151.671L1503.6 151.239ZM1500.38 130.859L1486.3 146.885L1488.05 148.299L1502.12 132.272L1500.38 130.859ZM1487.91 146.748L1479.38 139.838L1477.9 141.526L1486.43 148.436L1487.91 146.748ZM1479.51 141.389L1505.68 111.591L1503.94 110.178L1477.77 139.975L1479.51 141.389ZM1504.07 111.728L1511.86 118.042L1513.35 116.355L1505.55 110.041L1504.07 111.728Z" fill="#4E97FA"/>
<path d="M828.348 122.597C828.272 124.837 828.245 125.865 828.267 125.68C828.177 132.242 828.222 137.493 828.405 141.432C828.552 145.411 829.115 149.117 830.092 152.549C831.07 155.982 832.664 158.593 834.874 160.382C836.552 161.741 838.192 162.426 839.794 162.436C841.396 162.446 842.857 161.7 844.177 160.196C845.498 158.692 845.947 157.025 845.525 155.193C845.108 153.434 843.836 151.693 841.708 149.969L850.309 140.176C853.718 143.072 855.999 146.137 857.15 149.372C858.267 152.646 858.405 155.838 857.564 158.949C856.688 162.099 855.051 165.04 852.653 167.77C848.518 172.479 844.159 175.01 839.577 175.363C834.961 175.755 830.647 174.327 826.636 171.079C822.256 167.533 819.452 162.791 818.223 156.853C817.036 150.949 816.625 144.319 816.991 136.964L802.916 152.99L794.382 146.08L820.551 116.283L828.348 122.597Z" fill="#4E97FA"/>
<path d="M750.508 111.509C752.383 111.509 753.904 110.195 753.904 108.574C753.904 106.953 752.383 105.639 750.508 105.639C748.632 105.639 747.112 106.953 747.112 108.574C747.112 110.195 748.632 111.509 750.508 111.509Z" fill="#4E97FA"/>
<path d="M913.471 78.1387C915.347 78.1387 916.867 76.8247 916.867 75.2039C916.867 73.583 915.347 72.269 913.471 72.269C911.596 72.269 910.075 73.583 910.075 75.2039C910.075 76.8247 911.596 78.1387 913.471 78.1387Z" fill="#4E97FA"/>
<path d="M142.879 70.9106C144.755 70.9106 146.275 69.5967 146.275 67.9758C146.275 66.355 144.755 65.041 142.879 65.041C141.003 65.041 139.483 66.355 139.483 67.9758C139.483 69.5967 141.003 70.9106 142.879 70.9106Z" fill="#4E97FA"/>
<path d="M332.294 65.729C334.17 65.729 335.69 64.415 335.69 62.7942C335.69 61.1733 334.17 59.8594 332.294 59.8594C330.418 59.8594 328.898 61.1733 328.898 62.7942C328.898 64.415 330.418 65.729 332.294 65.729Z" fill="#4E97FA"/>
<path d="M810.212 46.064C812.088 46.064 813.609 44.75 813.609 43.1291C813.609 41.5083 812.088 40.1943 810.212 40.1943C808.337 40.1943 806.816 41.5083 806.816 43.1291C806.816 44.75 808.337 46.064 810.212 46.064Z" fill="#4E97FA"/>
<path d="M1202.96 54.5879C1204.83 54.5879 1206.35 53.2739 1206.35 51.6531C1206.35 50.0322 1204.83 48.7183 1202.96 48.7183C1201.08 48.7183 1199.56 50.0322 1199.56 51.6531C1199.56 53.2739 1201.08 54.5879 1202.96 54.5879Z" fill="#4E97FA"/>
<path d="M1590.23 101.654C1592.1 101.654 1593.62 100.34 1593.62 98.719C1593.62 97.0981 1592.1 95.7842 1590.23 95.7842C1588.35 95.7842 1586.83 97.0981 1586.83 98.719C1586.83 100.34 1588.35 101.654 1590.23 101.654Z" fill="#4E97FA"/>
<path d="M387.64 133.04C389.516 133.04 391.036 131.726 391.036 130.105C391.036 128.484 389.516 127.17 387.64 127.17C385.765 127.17 384.244 128.484 384.244 130.105C384.244 131.726 385.765 133.04 387.64 133.04Z" fill="#4E97FA"/>
<path d="M603.355 59.9775C605.231 59.9775 606.751 58.6636 606.751 57.0427C606.751 55.4219 605.231 54.1079 603.355 54.1079C601.479 54.1079 599.959 55.4219 599.959 57.0427C599.959 58.6636 601.479 59.9775 603.355 59.9775Z" fill="#4E97FA"/>
<path d="M1149.17 123.229C1151.04 123.229 1152.56 121.916 1152.56 120.295C1152.56 118.674 1151.04 117.36 1149.17 117.36C1147.29 117.36 1145.77 118.674 1145.77 120.295C1145.77 121.916 1147.29 123.229 1149.17 123.229Z" fill="#4E97FA"/>
<path d="M1392.06 126.174C1393.93 126.174 1395.46 124.86 1395.46 123.239C1395.46 121.618 1393.93 120.304 1392.06 120.304C1390.18 120.304 1388.66 121.618 1388.66 123.239C1388.66 124.86 1390.18 126.174 1392.06 126.174Z" fill="#4E97FA"/>
<path d="M204.763 124.806C206.638 124.806 208.159 123.492 208.159 121.871C208.159 120.25 206.638 118.936 204.763 118.936C202.887 118.936 201.367 120.25 201.367 121.871C201.367 123.492 202.887 124.806 204.763 124.806Z" fill="#4E97FA"/>
<path d="M154.663 149.487C154.452 155.119 152.61 159.461 149.136 162.514C145.662 165.567 140.951 167.094 135.003 167.094C131.055 167.094 127.687 166.409 124.897 165.041C122.055 163.672 119.923 161.804 118.502 159.435C117.028 157.066 116.291 154.408 116.291 151.461C116.291 147.987 117.16 145.144 118.897 142.934C120.634 140.775 122.66 139.302 124.976 138.512V138.196C121.976 137.196 119.607 135.538 117.87 133.222C116.133 130.906 115.265 127.932 115.265 124.3C115.265 121.037 116.028 118.142 117.554 115.615C119.028 113.141 121.213 111.194 124.108 109.773C126.95 108.352 130.345 107.641 134.293 107.641C140.609 107.641 145.662 109.194 149.452 112.299C153.189 115.405 155.163 120.089 155.373 126.353H142.267C142.214 124.037 141.556 122.195 140.293 120.826C139.03 119.51 137.188 118.853 134.766 118.853C132.714 118.853 131.134 119.432 130.029 120.59C128.871 121.8 128.292 123.379 128.292 125.327C128.292 127.853 129.108 129.669 130.74 130.775C132.319 131.933 134.872 132.512 138.398 132.512H140.925V143.486H138.398C135.714 143.486 133.556 143.934 131.924 144.828C130.24 145.776 129.397 147.434 129.397 149.803C129.397 151.697 129.924 153.171 130.977 154.224C132.029 155.277 133.477 155.803 135.319 155.803C137.319 155.803 138.819 155.198 139.819 153.987C140.767 152.777 141.32 151.276 141.477 149.487H154.663Z" fill="#4E97FA"/>
<path d="M1674.89 36.7138C1674.67 42.3459 1672.83 46.6883 1669.36 49.7412C1665.88 52.7941 1661.17 54.3206 1655.23 54.3206C1651.28 54.3206 1647.91 53.6363 1645.12 52.2678C1642.28 50.8992 1640.15 49.0307 1638.72 46.662C1637.25 44.2934 1636.51 41.6353 1636.51 38.6877C1636.51 35.2137 1637.38 32.3713 1639.12 30.1606C1640.86 28.0025 1642.88 26.5287 1645.2 25.7392V25.4233C1642.2 24.4233 1639.83 22.7652 1638.09 20.4492C1636.36 18.1332 1635.49 15.1593 1635.49 11.5274C1635.49 8.26397 1636.25 5.36898 1637.78 2.84245C1639.25 0.368547 1641.44 -1.57899 1644.33 -3.00016C1647.17 -4.42134 1650.57 -5.13193 1654.52 -5.13193C1660.83 -5.13193 1665.88 -3.57916 1669.67 -0.473631C1673.41 2.6319 1675.39 7.31652 1675.6 13.5802H1662.49C1662.44 11.2642 1661.78 9.42196 1660.52 8.05342C1659.25 6.73752 1657.41 6.07957 1654.99 6.07957C1652.94 6.07957 1651.36 6.65857 1650.25 7.81656C1649.09 9.02719 1648.51 10.6063 1648.51 12.5538C1648.51 15.0803 1649.33 16.8963 1650.96 18.0017C1652.54 19.1596 1655.09 19.7386 1658.62 19.7386H1661.15V30.7133H1658.62C1655.94 30.7133 1653.78 31.1607 1652.15 32.0555C1650.46 33.0029 1649.62 34.661 1649.62 37.0296C1649.62 38.9245 1650.15 40.3983 1651.2 41.451C1652.25 42.5038 1653.7 43.0301 1655.54 43.0301C1657.54 43.0301 1659.04 42.4248 1660.04 41.2142C1660.99 40.0036 1661.54 38.5034 1661.7 36.7138H1674.89Z" fill="#4E97FA"/>
<path d="M1056.57 98.7704L1057.77 98.8153L1057.82 97.5694H1056.57V98.7704ZM1051.04 111.798L1050.25 110.896L1051.04 111.798ZM1026.8 114.324L1027.33 113.246L1027.32 113.242L1026.8 114.324ZM1020.41 108.719L1021.44 108.101L1021.43 108.092L1021.43 108.084L1020.41 108.719ZM1020.8 92.2172L1019.87 91.4641L1019.86 91.4752L1020.8 92.2172ZM1026.88 87.7958L1027.27 88.9326L1028.08 88.6553V87.7958H1026.88ZM1026.88 87.48H1028.08V86.6143L1027.26 86.3406L1026.88 87.48ZM1019.78 82.5059L1018.82 83.2265L1019.78 82.5059ZM1019.46 64.8991L1020.49 65.5202L1020.49 65.5138L1019.46 64.8991ZM1026.01 59.0565L1026.54 60.1347L1026.55 60.1307L1026.01 59.0565ZM1051.36 61.583L1052.13 60.6592L1052.12 60.654L1051.36 61.583ZM1057.28 75.6369V76.8379H1058.52L1058.48 75.5965L1057.28 75.6369ZM1044.17 75.6369L1042.97 75.6641L1043 76.8379H1044.17V75.6369ZM1042.2 70.1101L1043.08 69.2954L1043.07 69.2868L1043.07 69.2783L1042.2 70.1101ZM1031.94 69.8732L1032.8 70.7034L1032.8 70.7025L1031.94 69.8732ZM1032.65 80.0583L1033.36 79.0897L1033.34 79.0765L1033.32 79.0639L1032.65 80.0583ZM1042.83 81.7953H1044.03V80.5942H1042.83V81.7953ZM1042.83 92.7699V93.971H1044.03V92.7699H1042.83ZM1033.83 94.1121L1033.25 93.059L1033.24 93.0653L1033.83 94.1121ZM1032.88 103.508L1032.03 104.357L1032.88 103.508ZM1041.73 103.271L1042.65 104.036L1042.66 104.024L1042.67 104.011L1041.73 103.271ZM1043.38 98.7704V97.5694H1042.28L1042.19 98.6649L1043.38 98.7704ZM1055.37 98.7256C1055.17 104.105 1053.42 108.107 1050.25 110.896L1051.84 112.7C1055.61 109.383 1057.55 104.7 1057.77 98.8153L1055.37 98.7256ZM1050.25 110.896C1047.05 113.706 1042.65 115.176 1036.91 115.176V117.578C1043.06 117.578 1048.09 115.996 1051.84 112.7L1050.25 110.896ZM1036.91 115.176C1033.1 115.176 1029.92 114.515 1027.33 113.246L1026.27 115.403C1029.27 116.871 1032.83 117.578 1036.91 117.578V115.176ZM1027.32 113.242C1024.66 111.961 1022.72 110.241 1021.44 108.101L1019.38 109.337C1020.94 111.934 1023.26 113.951 1026.28 115.407L1027.32 113.242ZM1021.43 108.084C1020.08 105.917 1019.4 103.481 1019.4 100.744H1017C1017 103.903 1017.79 106.783 1019.39 109.353L1021.43 108.084ZM1019.4 100.744C1019.4 97.4744 1020.21 94.9124 1021.75 92.9593L1019.86 91.4752C1017.92 93.9435 1017 97.0662 1017 100.744H1019.4ZM1021.74 92.9703C1023.35 90.9654 1025.2 89.6394 1027.27 88.9326L1026.49 86.659C1023.94 87.5313 1021.73 89.1529 1019.87 91.4642L1021.74 92.9703ZM1028.08 87.7958V87.48H1025.68V87.7958H1028.08ZM1027.26 86.3406C1024.47 85.4102 1022.31 83.8877 1020.74 81.7852L1018.82 83.2265C1020.71 85.7561 1023.29 87.5496 1026.5 88.6194L1027.26 86.3406ZM1020.74 81.7852C1019.19 79.7251 1018.37 77.0231 1018.37 73.584H1015.97C1015.97 77.4088 1016.89 80.6547 1018.82 83.2265L1020.74 81.7852ZM1018.37 73.584C1018.37 70.5157 1019.09 67.8399 1020.49 65.5202L1018.43 64.278C1016.78 67.0113 1015.97 70.1255 1015.97 73.584H1018.37ZM1020.49 65.5138C1021.83 63.2632 1023.83 61.466 1026.54 60.1346L1025.48 57.9783C1022.41 59.4893 1020.04 61.5872 1018.43 64.2844L1020.49 65.5138ZM1026.55 60.1307C1029.19 58.8107 1032.39 58.1258 1036.2 58.1258V55.7236C1032.11 55.7236 1028.52 56.4599 1025.48 57.9822L1026.55 60.1307ZM1036.2 58.1258C1042.32 58.1258 1047.08 59.6279 1050.6 62.512L1052.12 60.654C1048.06 57.327 1042.71 55.7236 1036.2 55.7236V58.1258ZM1050.59 62.5068C1053.99 65.3335 1055.88 69.6505 1056.08 75.6772L1058.48 75.5965C1058.26 69.0959 1056.2 64.0436 1052.13 60.6593L1050.59 62.5068ZM1057.28 74.4358H1044.17V76.8379H1057.28V74.4358ZM1045.37 75.6096C1045.32 73.0752 1044.59 70.9277 1043.08 69.2954L1041.32 70.9247C1042.34 72.0295 1042.92 73.5666 1042.97 75.6641L1045.37 75.6096ZM1043.07 69.2783C1041.51 67.6566 1039.31 66.9351 1036.67 66.9351V69.3373C1038.88 69.3373 1040.36 69.9317 1041.33 70.9418L1043.07 69.2783ZM1036.67 66.9351C1034.39 66.9351 1032.46 67.586 1031.07 69.0439L1032.8 70.7025C1033.62 69.8444 1034.85 69.3373 1036.67 69.3373V66.9351ZM1031.07 69.043C1029.66 70.5133 1029 72.4076 1029 74.6105H1031.4C1031.4 72.9183 1031.89 71.6544 1032.8 70.7034L1031.07 69.043ZM1029 74.6105C1029 77.4096 1029.92 79.6615 1031.97 81.0527L1033.32 79.0639C1032.11 78.2444 1031.4 76.8644 1031.4 74.6105H1029ZM1031.94 81.0268C1033.83 82.4155 1036.7 82.9963 1040.3 82.9963V80.5942C1036.85 80.5942 1034.62 80.017 1033.36 79.0897L1031.94 81.0268ZM1040.3 82.9963H1042.83V80.5942H1040.3V82.9963ZM1041.63 81.7953V92.7699H1044.03V81.7953H1041.63ZM1042.83 91.5689H1040.3V93.971H1042.83V91.5689ZM1040.3 91.5689C1037.5 91.5689 1035.12 92.0336 1033.25 93.059L1034.41 95.1652C1035.8 94.401 1037.74 93.971 1040.3 93.971V91.5689ZM1033.24 93.0653C1031.09 94.2766 1030.1 96.3991 1030.1 99.0863H1032.5C1032.5 97.0362 1033.2 95.8426 1034.42 95.159L1033.24 93.0653ZM1030.1 99.0863C1030.1 101.208 1030.7 103.022 1032.03 104.357L1033.73 102.658C1032.96 101.888 1032.5 100.754 1032.5 99.0863H1030.1ZM1032.03 104.357C1033.36 105.686 1035.14 106.288 1037.23 106.288V103.886C1035.62 103.886 1034.51 103.435 1033.73 102.658L1032.03 104.357ZM1037.23 106.288C1039.48 106.288 1041.36 105.595 1042.65 104.036L1040.8 102.506C1040.09 103.368 1038.97 103.886 1037.23 103.886V106.288ZM1042.67 104.011C1043.78 102.588 1044.41 100.857 1044.58 98.876L1042.19 98.6649C1042.05 100.263 1041.56 101.532 1040.78 102.531L1042.67 104.011ZM1043.38 99.9715H1056.57V97.5694H1043.38V99.9715Z" fill="#4E97FA"/>
</g>
<path d="M475 77C470.875 77 467.5 73.625 467.5 69.5C467.5 65.375 470.875 62 475 62C479.125 62 482.5 65.375 482.5 69.5C482.5 73.625 479.125 77 475 77ZM475 39.5C459.25 39.5 445 51.575 445 70.25C445 82.7 455.013 97.4375 475 114.5C494.987 97.4375 505 82.7 505 70.25C505 51.575 490.75 39.5 475 39.5Z" fill="#FFDA40"/>
<path d="M607.255 66.14H615.739V81.092H607.255V109.4H590.707V42.368H607.255V66.14ZM540.979 108.896V44.552H557.107V95.624H584.155V108.896H540.979ZM688.08 57.152H696.312V70.424H688.08V86.972H671.448V42.368H688.08V57.152ZM620.712 84.284V43.712H665.148V84.284H620.712ZM626.172 112.004V88.904H642.804V98.564H689.256V112.004H626.172ZM632.808 69.836L653.472 62.444V59.084L632.808 66.476V69.836ZM698.68 108.728V95.456H749.248V108.728H698.68ZM700.108 70.676V59.504C700.108 48.92 709.852 42.2 723.208 42.2C736.48 42.2 746.224 49.004 746.224 59.504V70.676C746.224 81.176 736.48 87.98 723.208 87.98C709.852 87.98 700.108 81.26 700.108 70.676ZM712.792 70.592L733.456 63.2V59.84L712.792 67.232V70.592ZM753.784 109.4V42.368H770.416V109.4H753.784ZM802.977 78.656V66.56H873.537V78.656H802.977ZM805.665 111.92H870.765V81.596H853.797V101.504H822.633V81.596H805.665V111.92ZM805.749 54.884V42.536H870.177V62.528H853.629V54.884H805.749ZM827.925 95.288L848.505 92.096V88.736L827.925 91.928V95.288ZM951.189 81.596H934.557V42.368H951.189V81.596ZM880.125 80.252L887.769 43.376H919.689L927.249 80.252H911.289L903.645 43.796L896.421 80.252H880.125ZM887.685 97.724V85.544H951.189V111.92H934.725V97.724H887.685ZM1012.78 42.704H1028.82V68.996H1006.31V73.784H1032.35V85.544H961.79V73.784H987.746V68.996H965.318V42.704H981.446V58.244H1012.78V42.704ZM961.286 111.92L976.658 89.912H1018.41L1033.78 111.92H1012.11L997.49 89.996L982.958 111.92H961.286ZM985.646 54.38L1008.58 50.18V46.736L985.646 50.936V54.38ZM1120.71 80.42H1114.83V109.4H1100.13V42.368H1114.83V65.468H1120.71V42.368H1135.49V109.4H1120.71V80.42ZM1061.82 57.824V44.552H1093.49V109.4H1077.87V57.824H1061.82ZM1212.1 50.6H1220.41V63.788H1212.1V74.288H1195.46V42.368H1212.1V50.6ZM1144.73 73.364V42.788H1160.86V62.612H1173.12V42.788H1189.16V73.364H1144.73ZM1149.43 111.92V98.816L1204.12 89.828H1149.43V78.236H1212.1V91.088L1163.88 99.068H1212.68V111.92H1149.43ZM1163.12 56.732V52.532L1171.02 49.676V53.876L1163.12 56.732ZM1268.14 48.248H1254.11V41.192H1237.56V48.248H1223.54V61.688H1268.14V48.248ZM1225.05 92.264V82.268C1225.05 71.6 1233.87 64.124 1246.05 64.124C1258.23 64.124 1267.05 71.6 1267.05 82.268V92.264C1267.05 102.932 1258.23 110.408 1246.05 110.408C1233.87 110.408 1225.05 102.932 1225.05 92.264ZM1244.2 97.556H1247.56V76.64H1244.2V97.556ZM1275.36 109.4V42.368H1291.91V66.14H1299.39V81.092H1291.91V109.4H1275.36ZM1373.49 42.368V109.4H1356.86V42.368H1373.49ZM1302.68 57.824V44.552H1343.59V109.4H1326.87V57.824H1302.68Z" fill="white"/>
</svg>
