<svg width="580" height="517" viewBox="0 0 580 517" fill="none" xmlns="http://www.w3.org/2000/svg">
<circle cx="59.5745" cy="232.574" r="54.5745" fill="white" stroke="#2D82FA" stroke-width="10"/>
<circle cx="60.426" cy="393.426" r="54.5745" fill="white" stroke="#2D82FA" stroke-width="10"/>
<circle cx="519.574" cy="232.574" r="54.5745" fill="white" stroke="#00D424" stroke-width="10"/>
<circle cx="520.426" cy="393.426" r="54.5745" fill="white" stroke="#00D424" stroke-width="10"/>
<circle cx="289.155" cy="138.155" r="54.1549" fill="white" stroke="#FFDA40" stroke-width="10"/>
<circle cx="289.999" cy="297.873" r="54.1549" fill="white" stroke="#FFDA40" stroke-width="10"/>
<circle cx="290.846" cy="457.592" r="54.1549" fill="white" stroke="#FFDA40" stroke-width="10"/>
<path d="M43.8438 116.75H39.3438V101.312H43.8438V116.75ZM28.9062 120.344H39.3438V117.938H43.8438V129.688H24.5V117.938H28.9062V120.344ZM39.3438 126.062V123.812H28.9062V126.062H39.3438ZM28.0625 102.438C29.5521 102.438 30.901 102.734 32.1094 103.328C33.3177 103.911 34.2656 104.724 34.9531 105.766C35.651 106.807 36 107.99 36 109.312C36 110.604 35.651 111.766 34.9531 112.797C34.2656 113.818 33.3177 114.62 32.1094 115.203C30.901 115.786 29.5521 116.083 28.0625 116.094C26.5729 116.083 25.2188 115.786 24 115.203C22.7917 114.62 21.8385 113.818 21.1406 112.797C20.4531 111.766 20.1146 110.604 20.125 109.312C20.1146 107.99 20.4531 106.807 21.1406 105.766C21.8385 104.724 22.7917 103.911 24 103.328C25.2188 102.734 26.5729 102.438 28.0625 102.438ZM28.0625 106.188C26.9896 106.188 26.125 106.464 25.4688 107.016C24.8229 107.568 24.5 108.333 24.5 109.312C24.5 110.292 24.8229 111.047 25.4688 111.578C26.125 112.109 26.9896 112.385 28.0625 112.406C29.1042 112.385 29.9427 112.109 30.5781 111.578C31.2135 111.047 31.5312 110.292 31.5312 109.312C31.5312 108.333 31.2135 107.568 30.5781 107.016C29.9427 106.464 29.1042 106.188 28.0625 106.188ZM61.2188 112.188H52.9375V114.812C54.9792 114.802 56.6771 114.75 58.0312 114.656C59.3854 114.562 60.7292 114.385 62.0625 114.125L62.4688 117.719C60.9167 117.979 59.3073 118.156 57.6406 118.25C55.974 118.333 53.6562 118.385 50.6875 118.406H48.5V108.906H56.7188V106.469H48.4688V102.969H61.2188V112.188ZM71.6875 119.031H67.2188V114.906H62.7812V111.375H67.2188V108.781H62.7812V105.219H67.2188V101.344H71.6875V119.031ZM71.6875 130H67.2188V123.781H51.7812V120.188H71.6875V130ZM101.219 118.906H75.0625V115.312H101.219V118.906ZM90.3438 103.812H98.7188V107.344H90.7812C91.125 108.281 92.0521 109.089 93.5625 109.766C95.0729 110.443 97.2708 110.854 100.156 111L98.8125 114.375C96.1771 114.219 93.9583 113.797 92.1562 113.109C90.3646 112.422 89.0052 111.526 88.0781 110.422C87.151 111.526 85.7917 112.422 84 113.109C82.2083 113.797 80 114.219 77.375 114.375L76.0312 111C78.8958 110.854 81.0833 110.448 82.5938 109.781C84.1042 109.104 85.0417 108.292 85.4062 107.344H77.5V103.812H85.8438V101.469H90.3438V103.812ZM88.0938 120.188C90.1979 120.188 91.9948 120.38 93.4844 120.766C94.9844 121.141 96.125 121.698 96.9062 122.438C97.6979 123.167 98.0938 124.052 98.0938 125.094C98.0938 126.146 97.6979 127.042 96.9062 127.781C96.125 128.521 94.9844 129.078 93.4844 129.453C91.9948 129.828 90.1979 130.01 88.0938 130C85.9792 130.01 84.1667 129.828 82.6562 129.453C81.1458 129.078 79.9896 128.521 79.1875 127.781C78.3958 127.042 78 126.146 78 125.094C78 124.052 78.3958 123.167 79.1875 122.438C79.9896 121.698 81.1458 121.141 82.6562 120.766C84.1667 120.38 85.9792 120.188 88.0938 120.188ZM88.0938 123.5C86.1562 123.5 84.75 123.625 83.875 123.875C83.0104 124.115 82.5833 124.521 82.5938 125.094C82.5833 125.667 83.0156 126.083 83.8906 126.344C84.7656 126.594 86.1667 126.719 88.0938 126.719C89.9688 126.719 91.3542 126.594 92.25 126.344C93.1458 126.083 93.5938 125.667 93.5938 125.094C93.5938 124.531 93.1458 124.125 92.25 123.875C91.3646 123.625 89.9792 123.5 88.0938 123.5Z" fill="black"/>
<path d="M276.906 25.375H250.75V21.8438H276.906V25.375ZM273.906 35.5312H253.844V27.125H258.344V31.9375H273.906V35.5312ZM263.812 8.15625C265.906 8.15625 267.745 8.39583 269.328 8.875C270.911 9.35417 272.141 10.0365 273.016 10.9219C273.891 11.8073 274.333 12.8542 274.344 14.0625C274.333 15.2812 273.891 16.3438 273.016 17.25C272.141 18.1562 270.911 18.8542 269.328 19.3438C267.745 19.8333 265.906 20.0833 263.812 20.0938C261.708 20.0833 259.859 19.8333 258.266 19.3438C256.682 18.8542 255.453 18.1562 254.578 17.25C253.714 16.3438 253.281 15.2812 253.281 14.0625C253.281 12.8542 253.714 11.8073 254.578 10.9219C255.453 10.0365 256.682 9.35417 258.266 8.875C259.859 8.39583 261.708 8.15625 263.812 8.15625ZM263.812 11.6875C261.896 11.7083 260.438 11.9167 259.438 12.3125C258.448 12.7083 257.958 13.2917 257.969 14.0625C257.958 14.875 258.448 15.474 259.438 15.8594C260.427 16.2448 261.885 16.4375 263.812 16.4375C267.729 16.4375 269.688 15.6458 269.688 14.0625C269.688 13.2917 269.182 12.7083 268.172 12.3125C267.161 11.9167 265.708 11.7083 263.812 11.6875ZM302.5 36.0625H298V28.3438H282.688V24.6875H302.5V36.0625ZM302.5 23.625H298V7.375H302.5V23.625ZM284.5 18.625C288.365 18.5417 292.135 18.1562 295.812 17.4688L296.312 21.0938C292.01 21.9271 287.417 22.3438 282.531 22.3438H280V8.84375H284.5V18.625ZM332.219 24.9062H306.062V21.3125H332.219V24.9062ZM321.344 9.8125H329.719V13.3438H321.781C322.125 14.2812 323.052 15.0885 324.562 15.7656C326.073 16.4427 328.271 16.8542 331.156 17L329.812 20.375C327.177 20.2188 324.958 19.7969 323.156 19.1094C321.365 18.4219 320.005 17.526 319.078 16.4219C318.151 17.526 316.792 18.4219 315 19.1094C313.208 19.7969 311 20.2188 308.375 20.375L307.031 17C309.896 16.8542 312.083 16.4479 313.594 15.7812C315.104 15.1042 316.042 14.2917 316.406 13.3438H308.5V9.8125H316.844V7.46875H321.344V9.8125ZM319.094 26.1875C321.198 26.1875 322.995 26.3802 324.484 26.7656C325.984 27.1406 327.125 27.6979 327.906 28.4375C328.698 29.1667 329.094 30.0521 329.094 31.0938C329.094 32.1458 328.698 33.0417 327.906 33.7812C327.125 34.5208 325.984 35.0781 324.484 35.4531C322.995 35.8281 321.198 36.0104 319.094 36C316.979 36.0104 315.167 35.8281 313.656 35.4531C312.146 35.0781 310.99 34.5208 310.188 33.7812C309.396 33.0417 309 32.1458 309 31.0938C309 30.0521 309.396 29.1667 310.188 28.4375C310.99 27.6979 312.146 27.1406 313.656 26.7656C315.167 26.3802 316.979 26.1875 319.094 26.1875ZM319.094 29.5C317.156 29.5 315.75 29.625 314.875 29.875C314.01 30.1146 313.583 30.5208 313.594 31.0938C313.583 31.6667 314.016 32.0833 314.891 32.3438C315.766 32.5938 317.167 32.7188 319.094 32.7188C320.969 32.7188 322.354 32.5938 323.25 32.3438C324.146 32.0833 324.594 31.6667 324.594 31.0938C324.594 30.5312 324.146 30.125 323.25 29.875C322.365 29.625 320.979 29.5 319.094 29.5Z" fill="black"/>
<path d="M505.844 116.594H495.031V118.125H502.781V125.375H487.156V126.562H503.469V129.844H482.719V122.375H498.312V121.312H482.719V118.125H490.594V116.594H479.844V113.344H505.844V116.594ZM495.031 103.469H503.406V106.781H495.703C496.214 107.5 497.214 108.104 498.703 108.594C500.193 109.073 502.26 109.365 504.906 109.469L503.594 112.781C500.927 112.656 498.688 112.292 496.875 111.688C495.073 111.083 493.703 110.271 492.766 109.25C491.849 110.271 490.484 111.083 488.672 111.688C486.87 112.292 484.625 112.656 481.938 112.781L480.719 109.469C483.333 109.365 485.375 109.073 486.844 108.594C488.323 108.104 489.318 107.5 489.828 106.781H482.188V103.469H490.531V101.344H495.031V103.469ZM521.219 112.188H512.938V114.812C514.979 114.802 516.677 114.75 518.031 114.656C519.385 114.562 520.729 114.385 522.062 114.125L522.469 117.719C520.917 117.979 519.307 118.156 517.641 118.25C515.974 118.333 513.656 118.385 510.688 118.406H508.5V108.906H516.719V106.469H508.469V102.969H521.219V112.188ZM531.688 119.031H527.219V114.906H522.781V111.375H527.219V108.781H522.781V105.219H527.219V101.344H531.688V119.031ZM531.688 130H527.219V123.781H511.781V120.188H531.688V130ZM561.219 118.906H535.062V115.312H561.219V118.906ZM550.344 103.812H558.719V107.344H550.781C551.125 108.281 552.052 109.089 553.562 109.766C555.073 110.443 557.271 110.854 560.156 111L558.812 114.375C556.177 114.219 553.958 113.797 552.156 113.109C550.365 112.422 549.005 111.526 548.078 110.422C547.151 111.526 545.792 112.422 544 113.109C542.208 113.797 540 114.219 537.375 114.375L536.031 111C538.896 110.854 541.083 110.448 542.594 109.781C544.104 109.104 545.042 108.292 545.406 107.344H537.5V103.812H545.844V101.469H550.344V103.812ZM548.094 120.188C550.198 120.188 551.995 120.38 553.484 120.766C554.984 121.141 556.125 121.698 556.906 122.438C557.698 123.167 558.094 124.052 558.094 125.094C558.094 126.146 557.698 127.042 556.906 127.781C556.125 128.521 554.984 129.078 553.484 129.453C551.995 129.828 550.198 130.01 548.094 130C545.979 130.01 544.167 129.828 542.656 129.453C541.146 129.078 539.99 128.521 539.188 127.781C538.396 127.042 538 126.146 538 125.094C538 124.052 538.396 123.167 539.188 122.438C539.99 121.698 541.146 121.141 542.656 120.766C544.167 120.38 545.979 120.188 548.094 120.188ZM548.094 123.5C546.156 123.5 544.75 123.625 543.875 123.875C543.01 124.115 542.583 124.521 542.594 125.094C542.583 125.667 543.016 126.083 543.891 126.344C544.766 126.594 546.167 126.719 548.094 126.719C549.969 126.719 551.354 126.594 552.25 126.344C553.146 126.083 553.594 125.667 553.594 125.094C553.594 124.531 553.146 124.125 552.25 123.875C551.365 123.625 549.979 123.5 548.094 123.5Z" fill="black"/>
<path d="M231 138L213.959 141.098L225.163 154.307L231 138ZM119.97 234.144L221.675 147.876L219.734 145.589L118.03 231.856L119.97 234.144Z" fill="#002073"/>
<path d="M231 298L222.474 282.923L213.68 297.846L231 298ZM118.238 233.292L218.608 292.438L220.131 289.854L119.762 230.708L118.238 233.292Z" fill="#002073"/>
<path d="M231 459L222.474 443.923L213.68 458.846L231 459ZM118.238 394.292L218.608 453.438L220.131 450.854L119.762 391.708L118.238 394.292Z" fill="#002073"/>
<path d="M230 298L212.973 301.174L224.235 314.333L230 298ZM119.975 394.14L220.719 307.918L218.768 305.638L118.025 391.86L119.975 394.14Z" fill="#002073"/>
<path d="M231 138L217.039 148.251L232.897 155.216L231 138ZM120.373 393.603L226.945 150.964L224.198 149.757L117.627 392.397L120.373 393.603Z" fill="#002073"/>
<path d="M230 458L231.161 440.718L215.614 448.354L230 458ZM117.654 232.661L222.702 446.544L225.395 445.221L120.346 231.339L117.654 232.661Z" fill="#002073"/>
<path d="M460 233L442.959 229.902L454.163 216.693L460 233ZM448.734 225.411L347.03 139.144L348.97 136.856L450.675 223.124L448.734 225.411Z" fill="#002073"/>
<path d="M460 232L451.474 247.077L442.68 232.154L460 232ZM449.131 240.146L348.762 299.292L347.238 296.708L447.608 237.562L449.131 240.146Z" fill="#002073"/>
<path d="M460 393L451.474 408.077L442.68 393.154L460 393ZM449.131 401.146L348.762 460.292L347.238 457.708L447.608 398.562L449.131 401.146Z" fill="#002073"/>
<path d="M460 393L442.973 389.826L454.235 376.667L460 393ZM448.768 385.362L348.025 299.14L349.975 296.86L450.719 383.082L448.768 385.362Z" fill="#002073"/>
<path d="M460 393L446.039 382.749L461.897 375.784L460 393ZM453.198 381.243L346.627 138.603L349.373 137.397L455.945 380.036L453.198 381.243Z" fill="#002073"/>
<path d="M460 232L461.161 249.282L445.614 241.646L460 232ZM455.395 244.779L350.346 458.661L347.654 457.339L452.702 243.456L455.395 244.779Z" fill="#002073"/>
</svg>
