<svg width="770" height="688" viewBox="0 0 770 688" fill="none" xmlns="http://www.w3.org/2000/svg">
<path d="M302.065 8.26953V27.4883H299.281V17.6152H294.272V15.3594H299.281V8.26953H302.065ZM302.768 31.6777V33.9336H285.014V25.7598H287.797V31.6777H302.768ZM289.584 13.5723C289.584 16.8535 291.957 20.1348 295.912 21.4531L294.477 23.6797C291.532 22.6396 289.35 20.5303 288.207 17.9375C287.065 20.8232 284.765 23.1523 281.645 24.2656L280.209 22.0098C284.252 20.6328 286.742 17.1758 286.742 13.5723V12.5469H281.059V10.2617H295.209V12.5469H289.584V13.5723ZM329.143 22.0391V24.2363H305.149V22.0391H315.754V19.7539H308.284V8.94336H326.213V11.1406H311.096V13.2793H325.54V15.3594H311.096V17.5859H326.389V19.7539H318.538V22.0391H329.143ZM317.161 25.9648C322.932 25.9355 326.213 27.459 326.213 30.2129C326.213 32.9961 322.932 34.4609 317.161 34.4316C311.331 34.4609 308.049 32.9961 308.049 30.2129C308.049 27.459 311.331 25.9355 317.161 25.9648ZM317.161 28.0449C313.03 28.0449 310.803 28.8066 310.833 30.2129C310.803 31.6191 313.03 32.3516 317.161 32.3223C321.233 32.3516 323.43 31.6191 323.43 30.2129C323.43 28.8066 321.233 28.0449 317.161 28.0449ZM339.64 12.8984C339.64 16.209 342.013 19.4609 345.968 20.8086L344.532 22.9766C341.588 21.9512 339.405 19.8564 338.263 17.2637C337.12 20.1494 334.82 22.4639 331.7 23.5625L330.265 21.3652C334.308 19.9883 336.798 16.4727 336.798 12.9277V12.1953H331.114V9.93945H345.265V12.1953H339.64V12.8984ZM352.12 25.2617V34.4902H349.337V27.5176H334.337V25.2617H352.12ZM352.12 8.24023V23.9434H349.337V17.2051H344.474V14.9199H349.337V8.24023H352.12ZM377.031 8.26953V27.3418H374.247V8.26953H377.031ZM377.822 31.6777V33.9336H359.863V25.4082H362.675V31.6777H377.822ZM362.792 10.0273C366.747 10.0273 369.765 12.7227 369.765 16.5312C369.765 20.3984 366.747 23.0645 362.792 23.0645C358.837 23.0645 355.79 20.3984 355.79 16.5312C355.79 12.7227 358.837 10.0273 362.792 10.0273ZM362.792 12.459C360.331 12.459 358.515 14.1289 358.515 16.5312C358.515 18.9922 360.331 20.6328 362.792 20.6328C365.195 20.6328 367.04 18.9922 367.04 16.5312C367.04 14.1289 365.195 12.459 362.792 12.459ZM410.738 28.8652V31.209H386.715V28.8652H410.738ZM408.541 10.7598V13.0449H404.528V21.8047H408.453V24.0312H388.824V21.8047H392.75V13.0449H388.766V10.7598H408.541ZM395.504 21.8047H401.803V13.0449H395.504V21.8047ZM435.766 29.0117V31.3555H411.743V29.0117H422.319V24.4121H414.672V16.0625H430.083V12.3711H414.614V10.0859H432.837V18.2891H417.426V22.127H433.452V24.4121H425.073V29.0117H435.766ZM457.571 10.9062V13.7188C457.571 17.1172 457.571 20.8086 456.604 26.4043L453.763 26.1406C454.817 20.8965 454.817 17.0293 454.817 13.7188V13.1914H439.349V10.9062H457.571ZM460.706 28.4551V30.7695H436.771V28.4551H460.706ZM472.521 10.9941V20.4863H465.314V26.0234C468.17 26.0088 470.866 25.877 474.015 25.3789L474.249 27.6055C470.587 28.25 467.687 28.3379 464.406 28.3672H462.619V18.2012H469.826V13.2793H462.589V10.9941H472.521ZM484.328 8.24023V34.4902H481.662V20.7207H478.263V33.1426H475.714V8.76758H478.263V18.4648H481.662V8.24023H484.328ZM500.683 10.1445V21.6875H488.203V10.1445H500.683ZM490.928 12.3711V19.4316H497.929V12.3711H490.928ZM508.594 8.26953V23.8848H505.81V8.26953H508.594ZM499.834 24.3242C505.283 24.3242 508.711 26.1699 508.711 29.3926C508.711 32.5859 505.283 34.4609 499.834 34.4316C494.297 34.4609 490.869 32.5859 490.869 29.3926C490.869 26.1699 494.297 24.3242 499.834 24.3242ZM499.834 26.5215C495.908 26.4922 493.652 27.5176 493.652 29.3926C493.652 31.209 495.908 32.2344 499.834 32.2344C503.642 32.2344 505.957 31.209 505.957 29.3926C505.957 27.5176 503.642 26.4922 499.834 26.5215Z" fill="black"/>
<path d="M358.674 358.76V365.674H364.592V356.24H367.346V382.549H364.592V367.93H358.674V375.928H346.487V358.76H358.674ZM349.241 360.928V373.701H355.95V360.928H349.241ZM392.257 356.27V375.488H389.473V356.27H392.257ZM393.048 379.678V381.934H375.089V373.672H377.901V379.678H393.048ZM380.04 360.312C380.011 364.15 382.471 367.666 386.514 369.072L385.079 371.299C382.047 370.171 379.805 367.944 378.634 365.088C377.476 368.135 375.206 370.581 372.13 371.768L370.636 369.57C374.766 368.047 377.198 364.268 377.198 360.312V357.705H380.04V360.312ZM417.372 356.24V382.549H414.618V368.428H409.814V366.113H414.618V356.24H417.372ZM408.261 358.613V367.988H399.267V373.965C403.456 373.95 406.679 373.804 410.341 373.145L410.575 375.43C406.65 376.133 403.193 376.279 398.564 376.309H396.484V365.732H405.566V360.869H396.425V358.613H408.261ZM442.254 356.24V371.826H439.5V356.24H442.254ZM424.939 357.939V367.432C429.187 367.402 432.893 367.124 436.863 366.289L437.244 368.574C432.908 369.482 428.953 369.775 424.324 369.746H422.156V357.939H424.939ZM433.464 372.031C438.943 372.002 442.371 373.965 442.371 377.275C442.371 380.498 438.943 382.461 433.464 382.432C427.957 382.461 424.5 380.498 424.5 377.275C424.5 373.965 427.957 372.002 433.464 372.031ZM433.464 374.287C429.597 374.287 427.283 375.342 427.312 377.275C427.283 379.121 429.597 380.205 433.464 380.205C437.302 380.205 439.558 379.121 439.588 377.275C439.558 375.342 437.302 374.287 433.464 374.287Z" fill="black"/>
<rect x="112" y="136" width="110" height="60" rx="12" fill="#00D424"/>
<path d="M164.8 166.621H161.956V154.307H164.8V166.621ZM152.41 170.049H161.982V167.688H164.8V176.98H149.617V167.688H152.41V170.049ZM161.982 174.695V172.258H152.41V174.695H161.982ZM152.283 155.322C153.451 155.314 154.504 155.538 155.444 155.995C156.383 156.444 157.119 157.078 157.653 157.899C158.186 158.72 158.452 159.656 158.452 160.705C158.452 161.729 158.182 162.647 157.64 163.46C157.107 164.272 156.37 164.907 155.431 165.364C154.5 165.813 153.451 166.037 152.283 166.037C151.106 166.037 150.048 165.813 149.109 165.364C148.169 164.907 147.429 164.272 146.887 163.46C146.354 162.647 146.087 161.729 146.087 160.705C146.087 159.656 146.354 158.72 146.887 157.899C147.429 157.078 148.169 156.444 149.109 155.995C150.048 155.538 151.106 155.314 152.283 155.322ZM152.283 157.684C151.614 157.684 151.017 157.806 150.493 158.052C149.976 158.297 149.57 158.648 149.274 159.105C148.986 159.562 148.846 160.096 148.855 160.705C148.846 161.306 148.986 161.835 149.274 162.292C149.57 162.741 149.976 163.092 150.493 163.346C151.017 163.591 151.614 163.718 152.283 163.727C152.943 163.718 153.531 163.591 154.047 163.346C154.564 163.092 154.966 162.741 155.253 162.292C155.541 161.835 155.685 161.306 155.685 160.705C155.685 160.096 155.541 159.562 155.253 159.105C154.966 158.648 154.564 158.297 154.047 158.052C153.531 157.806 152.943 157.684 152.283 157.684ZM178.34 162.584H171.104V165.402H171.612C173.339 165.402 174.773 165.364 175.916 165.288C177.058 165.203 178.197 165.055 179.331 164.844L179.61 167.129C178.307 167.349 176.974 167.493 175.611 167.561C174.257 167.628 172.382 167.662 169.987 167.662H168.311V160.477H175.522V157.912H168.26V155.678H178.34V162.584ZM186.592 168.449H183.774V164.666H179.712V162.406H183.774V159.842H179.712V157.582H183.774V154.332H186.592V168.449ZM186.592 177.26H183.774V171.801H170.901V169.541H186.592V177.26Z" fill="white"/>
<rect x="394.781" y="82" width="122.24" height="122.24" rx="12" transform="rotate(45 394.781 82)" fill="#2D82FA"/>
<path d="M369.875 161.365H373.074V163.701H369.875V168.271H367.057V156.744H369.875V161.365ZM369.875 175.279H357.688V177.183H370.586V179.417H354.895V173.222H367.057V171.445H354.869V169.261H369.875V175.279ZM358.119 157.505C359.279 157.505 360.32 157.725 361.242 158.166C362.165 158.597 362.888 159.207 363.413 159.994C363.938 160.772 364.205 161.661 364.213 162.66C364.205 163.641 363.938 164.526 363.413 165.313C362.888 166.092 362.161 166.701 361.23 167.141C360.307 167.573 359.27 167.789 358.119 167.789C356.96 167.789 355.914 167.569 354.983 167.128C354.061 166.688 353.333 166.079 352.8 165.3C352.275 164.522 352.017 163.641 352.025 162.66C352.017 161.661 352.275 160.772 352.8 159.994C353.325 159.207 354.052 158.597 354.983 158.166C355.914 157.725 356.96 157.505 358.119 157.505ZM358.119 159.791C357.476 159.791 356.9 159.909 356.393 160.146C355.885 160.383 355.487 160.717 355.199 161.149C354.92 161.581 354.785 162.084 354.793 162.66C354.785 163.227 354.92 163.73 355.199 164.17C355.487 164.611 355.885 164.953 356.393 165.199C356.9 165.436 357.476 165.554 358.119 165.554C358.754 165.554 359.325 165.436 359.833 165.199C360.349 164.953 360.751 164.611 361.039 164.17C361.327 163.73 361.471 163.227 361.471 162.66C361.471 162.084 361.327 161.581 361.039 161.149C360.751 160.717 360.354 160.383 359.846 160.146C359.338 159.909 358.762 159.791 358.119 159.791ZM392.201 161.06V161.339C392.192 162.609 392.167 163.713 392.124 164.653C392.091 165.584 392.01 166.667 391.883 167.903C391.756 169.13 391.557 170.463 391.286 171.902L388.443 171.597C388.714 170.26 388.912 168.999 389.039 167.814C389.166 166.621 389.247 165.563 389.281 164.64C389.323 163.718 389.348 162.634 389.357 161.39V161.111H375.646V158.851H392.201V161.06ZM394.384 176.726H373.462V174.416H381.181V166.443H383.974V174.416H394.384V176.726ZM414.272 179.722H411.479V156.744H414.272V179.722ZM407.214 167.357H399.317V171.978C401.255 171.961 403.033 171.893 404.649 171.775C406.274 171.656 407.933 171.453 409.626 171.166L409.88 173.476C408.06 173.798 406.27 174.014 404.509 174.124C402.749 174.234 400.722 174.289 398.428 174.289H396.422V165.123H404.344V161.035H396.397V158.75H407.214V167.357ZM435.887 159.943H429.247C429.374 160.595 429.759 161.208 430.402 161.784C431.045 162.359 431.913 162.846 433.005 163.244C434.097 163.641 435.353 163.904 436.775 164.031L435.785 166.24C433.728 166.037 431.955 165.55 430.466 164.78C428.976 164.001 427.914 163.028 427.279 161.86C426.661 163.036 425.612 164.01 424.131 164.78C422.658 165.55 420.889 166.037 418.824 166.24L417.859 164.031C419.256 163.904 420.491 163.641 421.566 163.244C422.65 162.846 423.513 162.359 424.156 161.784C424.799 161.208 425.189 160.595 425.324 159.943H418.748V157.708H435.887V159.943ZM435.226 179.417H419.307V171.496H435.226V179.417ZM422.1 177.132H432.484V173.73H422.1V177.132ZM437.766 169.515H416.844V167.306H437.766V169.515Z" fill="white"/>
<rect x="562" y="136" width="110" height="60" rx="12" fill="#FD2626"/>
<path d="M616.552 166.316H607.513V167.992H613.988V173.375H600.937V174.949H614.622V177.057H598.169V171.445H611.22V170.023H598.144V167.992H604.72V166.316H595.732V164.234H616.552V166.316ZM607.513 156.186H614.546V158.293H607.805C607.991 158.843 608.41 159.338 609.062 159.778C609.722 160.21 610.602 160.565 611.702 160.845C612.811 161.116 614.115 161.289 615.613 161.365L614.775 163.473C612.701 163.346 610.92 163.007 609.43 162.457C607.94 161.907 606.836 161.171 606.117 160.248C605.397 161.171 604.293 161.907 602.803 162.457C601.314 163.007 599.523 163.346 597.433 163.473L596.646 161.365C598.127 161.289 599.413 161.116 600.505 160.845C601.605 160.565 602.486 160.21 603.146 159.778C603.806 159.338 604.233 158.843 604.428 158.293H597.738V156.186H604.72V154.256H607.513V156.186ZM628.34 162.584H621.104V165.402H621.612C623.339 165.402 624.773 165.364 625.916 165.288C627.058 165.203 628.197 165.055 629.331 164.844L629.61 167.129C628.307 167.349 626.974 167.493 625.611 167.561C624.257 167.628 622.382 167.662 619.987 167.662H618.311V160.477H625.522V157.912H618.26V155.678H628.34V162.584ZM636.592 168.449H633.774V164.666H629.712V162.406H633.774V159.842H629.712V157.582H633.774V154.332H636.592V168.449ZM636.592 177.26H633.774V171.801H620.901V169.541H636.592V177.26Z" fill="white"/>
<path d="M300 168L280 156.453L280 179.547L300 168ZM222 170L282 170L282 166L222 166L222 170Z" fill="#384051"/>
<path d="M554 168L534 156.453L534 179.547L554 168ZM476 170L536 170L536 166L476 166L476 170Z" fill="#384051"/>
<path d="M445.541 607.418L425.541 595.871L425.541 618.965L445.541 607.418ZM373.441 609.418L427.541 609.418L427.541 605.418L373.441 605.418L373.441 609.418Z" fill="#384051"/>
<path d="M657.219 607.418L637.219 595.871L637.219 618.965L657.219 607.418ZM585.119 609.418L639.219 609.418L639.219 605.418L585.119 605.418L585.119 609.418Z" fill="#384051"/>
<rect x="295.795" y="579.686" width="101.679" height="55.4615" rx="12" fill="#00D424"/>
<path d="M344.519 608.36H341.785V596.52H344.519V608.36ZM332.605 611.656H341.809V609.386H344.519V618.321H329.92V609.386H332.605V611.656ZM341.809 616.124V613.78H332.605V616.124H341.809ZM332.483 597.496C333.606 597.488 334.619 597.704 335.523 598.143C336.426 598.574 337.134 599.185 337.647 599.974C338.159 600.764 338.416 601.663 338.416 602.672C338.416 603.657 338.155 604.54 337.635 605.321C337.122 606.102 336.414 606.712 335.51 607.152C334.615 607.583 333.606 607.799 332.483 607.799C331.352 607.799 330.335 607.583 329.431 607.152C328.528 606.712 327.816 606.102 327.295 605.321C326.782 604.54 326.526 603.657 326.526 602.672C326.526 601.663 326.782 600.764 327.295 599.974C327.816 599.185 328.528 598.574 329.431 598.143C330.335 597.704 331.352 597.488 332.483 597.496ZM332.483 599.767C331.84 599.767 331.267 599.885 330.762 600.121C330.266 600.357 329.875 600.694 329.59 601.134C329.313 601.573 329.179 602.086 329.187 602.672C329.179 603.25 329.313 603.758 329.59 604.198C329.875 604.629 330.266 604.967 330.762 605.211C331.267 605.447 331.84 605.569 332.483 605.577C333.118 605.569 333.684 605.447 334.18 605.211C334.676 604.967 335.063 604.629 335.34 604.198C335.616 603.758 335.755 603.25 335.755 602.672C335.755 602.086 335.616 601.573 335.34 601.134C335.063 600.694 334.676 600.357 334.18 600.121C333.684 599.885 333.118 599.767 332.483 599.767ZM357.539 604.479H350.581V607.188H351.069C352.729 607.188 354.109 607.152 355.207 607.079C356.306 606.997 357.4 606.855 358.491 606.651L358.76 608.849C357.506 609.06 356.225 609.199 354.914 609.264C353.612 609.329 351.81 609.361 349.507 609.361H347.895V602.452H354.829V599.986H347.846V597.838H357.539V604.479ZM365.473 610.118H362.763V606.48H358.857V604.308H362.763V601.842H358.857V599.669H362.763V596.544H365.473V610.118ZM365.473 618.59H362.763V613.341H350.385V611.168H365.473V618.59Z" fill="white"/>
<rect x="532.835" y="527.924" width="112.994" height="112.994" rx="12" transform="rotate(45 532.835 527.924)" fill="#FFDA40"/>
<path d="M508.887 601.368H511.963V603.614H508.887V608.009H506.177V596.925H508.887V601.368ZM508.887 614.747H497.168V616.578H509.57V618.727H494.482V612.77H506.177V611.061H494.458V608.961H508.887V614.747ZM497.583 597.657C498.698 597.657 499.699 597.869 500.586 598.292C501.473 598.707 502.169 599.293 502.673 600.05C503.178 600.799 503.434 601.653 503.442 602.613C503.434 603.557 503.178 604.408 502.673 605.165C502.169 605.913 501.469 606.499 500.574 606.922C499.687 607.337 498.69 607.545 497.583 607.545C496.468 607.545 495.463 607.333 494.568 606.91C493.681 606.487 492.981 605.901 492.468 605.152C491.964 604.404 491.715 603.557 491.724 602.613C491.715 601.653 491.964 600.799 492.468 600.05C492.973 599.293 493.673 598.707 494.568 598.292C495.463 597.869 496.468 597.657 497.583 597.657ZM497.583 599.854C496.965 599.854 496.411 599.968 495.923 600.196C495.435 600.424 495.052 600.746 494.775 601.161C494.507 601.576 494.377 602.06 494.385 602.613C494.377 603.159 494.507 603.643 494.775 604.066C495.052 604.489 495.435 604.819 495.923 605.055C496.411 605.283 496.965 605.396 497.583 605.396C498.193 605.396 498.743 605.283 499.231 605.055C499.727 604.819 500.114 604.489 500.391 604.066C500.667 603.643 500.806 603.159 500.806 602.613C500.806 602.06 500.667 601.576 500.391 601.161C500.114 600.746 499.731 600.424 499.243 600.196C498.755 599.968 498.201 599.854 497.583 599.854ZM530.354 601.075V601.344C530.345 602.564 530.321 603.626 530.28 604.53C530.248 605.425 530.17 606.467 530.048 607.655C529.926 608.835 529.735 610.117 529.475 611.5L526.74 611.207C527.001 609.921 527.192 608.709 527.314 607.569C527.436 606.422 527.513 605.405 527.546 604.518C527.587 603.631 527.611 602.589 527.619 601.393V601.124H514.436V598.951H530.354V601.075ZM532.453 616.139H512.336V613.917H519.758V606.251H522.443V613.917H532.453V616.139ZM551.576 619.02H548.891V596.925H551.576V619.02ZM544.789 607.13H537.196V611.573C539.06 611.557 540.769 611.492 542.323 611.378C543.886 611.264 545.481 611.069 547.108 610.792L547.353 613.014C545.603 613.323 543.882 613.53 542.189 613.636C540.496 613.742 538.547 613.795 536.342 613.795H534.413V604.981H542.03V601.051H534.389V598.854H544.789V607.13ZM572.359 600.001H565.975C566.097 600.628 566.467 601.218 567.086 601.771C567.704 602.324 568.539 602.792 569.588 603.175C570.638 603.557 571.847 603.81 573.214 603.932L572.262 606.056C570.284 605.86 568.579 605.392 567.147 604.652C565.715 603.903 564.693 602.967 564.083 601.844C563.489 602.975 562.48 603.911 561.056 604.652C559.64 605.392 557.939 605.86 555.953 606.056L555.025 603.932C556.368 603.81 557.556 603.557 558.59 603.175C559.632 602.792 560.462 602.324 561.08 601.771C561.699 601.218 562.073 600.628 562.203 600.001H555.88V597.853H572.359V600.001ZM571.725 618.727H556.417V611.109H571.725V618.727ZM559.103 616.529H569.088V613.258H559.103V616.529ZM574.166 609.205H554.049V607.081H574.166V609.205Z" fill="black"/>
<rect x="668.194" y="579.686" width="101.679" height="55.4615" rx="12" fill="#FD2626"/>
<path d="M718.603 608.067H709.912V609.679H716.137V614.854H703.588V616.368H716.748V618.395H700.927V612.999H713.476V611.632H700.903V609.679H707.226V608.067H698.583V606.065H718.603V608.067ZM709.912 598.326H716.674V600.353H710.192C710.371 600.882 710.774 601.358 711.401 601.781C712.036 602.196 712.882 602.538 713.94 602.806C715.006 603.067 716.259 603.233 717.7 603.307L716.894 605.333C714.9 605.211 713.187 604.885 711.755 604.356C710.323 603.827 709.261 603.119 708.569 602.232C707.877 603.119 706.815 603.827 705.383 604.356C703.951 604.885 702.229 605.211 700.219 605.333L699.462 603.307C700.887 603.233 702.124 603.067 703.173 602.806C704.231 602.538 705.078 602.196 705.712 601.781C706.347 601.358 706.758 600.882 706.945 600.353H700.512V598.326H707.226V596.471H709.912V598.326ZM729.938 604.479H722.98V607.188H723.468C725.128 607.188 726.508 607.152 727.606 607.079C728.705 606.997 729.8 606.855 730.89 606.651L731.159 608.849C729.905 609.06 728.624 609.199 727.313 609.264C726.011 609.329 724.209 609.361 721.906 609.361H720.294V602.452H727.228V599.986H720.246V597.838H729.938V604.479ZM737.873 610.118H735.163V606.48H731.256V604.308H735.163V601.842H731.256V599.669H735.163V596.544H737.873V610.118ZM737.873 618.59H735.163V613.341H722.785V611.168H737.873V618.59Z" fill="white"/>
<path d="M532.43 521.453L543.977 501.453H520.883L532.43 521.453ZM530.43 449.354V503.453H534.43V449.354H530.43Z" fill="#384051"/>
<path d="M413.188 444.732L393.188 433.185L393.188 456.279L413.188 444.732ZM341.088 446.732L395.188 446.732L395.188 442.732L341.088 442.732L341.088 446.732Z" fill="#384051"/>
<rect x="157.141" y="417" width="215.375" height="55.4615" rx="12" fill="#2D82FA"/>
<path d="M195.01 455.904H192.276V433.833H195.01V455.904ZM188.418 436.177C188.418 439.685 187.625 442.765 186.038 445.418C184.451 448.063 181.819 450.256 178.14 451.998L176.724 449.825C179.564 448.474 181.701 446.858 183.133 444.979C184.573 443.09 185.416 440.873 185.66 438.326H177.847V436.177H188.418ZM216.477 455.904H213.889V433.833H216.477V455.904ZM211.912 454.854H209.324V447.481H205.881V445.259H209.324V441.988H206.272C205.735 443.876 204.856 445.593 203.635 447.139C202.423 448.685 200.811 450.053 198.801 451.241L197.214 449.312C199.46 447.986 201.149 446.456 202.28 444.722C203.42 442.989 204.091 440.987 204.294 438.716H198.386V436.519H206.98C206.98 437.658 206.903 438.741 206.748 439.766H209.324V434.371H211.912V454.854ZM231.401 438.106H218.315V435.958H223.515V433.736H226.225V435.958H231.401V438.106ZM224.858 438.96C225.916 438.96 226.852 439.127 227.666 439.461C228.479 439.795 229.11 440.267 229.558 440.877C230.013 441.487 230.245 442.191 230.253 442.989C230.245 443.786 230.013 444.49 229.558 445.101C229.11 445.711 228.479 446.183 227.666 446.517C226.852 446.85 225.916 447.017 224.858 447.017C223.8 447.017 222.86 446.85 222.038 446.517C221.216 446.183 220.577 445.711 220.122 445.101C219.666 444.49 219.438 443.786 219.438 442.989C219.438 442.191 219.666 441.487 220.122 440.877C220.577 440.267 221.216 439.795 222.038 439.461C222.86 439.127 223.8 438.96 224.858 438.96ZM224.858 441.011C224.003 441.011 223.324 441.186 222.819 441.536C222.323 441.886 222.075 442.37 222.075 442.989C222.075 443.607 222.323 444.087 222.819 444.429C223.324 444.771 224.003 444.934 224.858 444.917C225.712 444.934 226.392 444.771 226.896 444.429C227.409 444.087 227.666 443.607 227.666 442.989C227.666 442.37 227.409 441.886 226.896 441.536C226.392 441.186 225.712 441.011 224.858 441.011ZM235.698 439.693H238.774V441.915H235.698V447.652H232.988V433.833H235.698V439.693ZM235.698 455.904H232.988V450.85H221V448.677H235.698V455.904ZM244.25 449.166H253.966V447.066H256.676V455.635H241.564V447.066H244.25V449.166ZM253.966 453.487V451.241H244.25V453.487H253.966ZM259.264 445.821H239.147V443.599H259.264V445.821ZM250.597 434.908C250.597 435.697 250.915 436.474 251.549 437.239C252.192 438.004 253.091 438.663 254.247 439.217C255.403 439.77 256.717 440.132 258.19 440.303L257.238 442.452C255.407 442.199 253.787 441.691 252.379 440.926C250.98 440.153 249.922 439.205 249.206 438.082C248.489 439.213 247.427 440.161 246.02 440.926C244.62 441.691 243.004 442.199 241.173 442.452L240.172 440.303C241.67 440.124 242.996 439.766 244.152 439.229C245.307 438.684 246.203 438.033 246.837 437.276C247.48 436.511 247.806 435.722 247.814 434.908V434.078H250.597V434.908ZM285.352 453.218H265.186V450.997H273.877V446.187H267.408V435.542H283.033V446.187H276.563V450.997H285.352V453.218ZM270.069 444.063H280.347V437.715H270.069V444.063ZM305.012 445.455H302.424V433.858H305.012V445.455ZM300.642 445.333H298.079V440.621H294.27V438.545H298.079V434.273H300.642V445.333ZM295.564 437.129H289.729V442.549C291.186 442.533 292.402 442.496 293.379 442.439C294.355 442.374 295.352 442.256 296.37 442.085L296.516 444.234C295.336 444.429 294.168 444.559 293.013 444.625C291.857 444.69 290.356 444.722 288.508 444.722H287.043V434.981H295.564V437.129ZM305.012 451.875H292.708V453.487H305.745V455.635H289.998V449.849H302.351V448.384H289.973V446.26H305.012V451.875ZM332.199 448.433H323.703V451.363H321.017V448.433H312.082V446.285H332.199V448.433ZM330.001 455.464H314.499V449.947H317.208V453.316H330.001V455.464ZM331.1 437.813H313.083V435.762H320.773V433.687H323.483V435.762H331.1V437.813ZM322.116 438.545C324.468 438.545 326.278 438.83 327.548 439.4C328.826 439.97 329.464 440.8 329.464 441.89C329.464 442.981 328.826 443.819 327.548 444.405C326.27 444.991 324.459 445.284 322.116 445.284C319.772 445.284 317.965 444.991 316.696 444.405C315.426 443.819 314.792 442.981 314.792 441.89C314.792 440.8 315.422 439.97 316.684 439.4C317.953 438.83 319.764 438.545 322.116 438.545ZM322.116 440.45C320.578 440.45 319.434 440.568 318.686 440.804C317.937 441.04 317.567 441.402 317.575 441.89C317.567 442.378 317.937 442.741 318.686 442.977C319.434 443.213 320.578 443.331 322.116 443.331C323.646 443.331 324.789 443.213 325.546 442.977C326.303 442.741 326.681 442.378 326.681 441.89C326.681 441.402 326.303 441.04 325.546 440.804C324.789 440.568 323.646 440.45 322.116 440.45ZM343.485 442.232H336.527V445.137C338.211 445.121 339.648 445.072 340.836 444.991C342.032 444.901 343.241 444.755 344.461 444.551L344.754 446.773C343.428 447.001 342.11 447.147 340.799 447.212C339.497 447.278 337.715 447.31 335.453 447.31H333.792V440.181H340.75V437.544H333.768V435.372H343.485V442.232ZM351.419 450.118H348.709V444.478H344.852V442.281H348.709V439.498H344.852V437.325H348.709V433.858H351.419V450.118ZM352.005 455.416H336.771V448.897H339.481V453.194H352.005V455.416Z" fill="white"/>
<rect x="424.281" y="417" width="215.375" height="55.4615" rx="12" fill="#2D82FA"/>
<path d="M462.15 455.904H459.416V433.833H462.15V455.904ZM455.558 436.177C455.558 439.685 454.765 442.765 453.178 445.418C451.591 448.063 448.958 450.256 445.28 451.998L443.864 449.825C446.704 448.474 448.84 446.858 450.272 444.979C451.713 443.09 452.555 440.873 452.799 438.326H444.987V436.177H455.558ZM483.617 455.904H481.029V433.833H483.617V455.904ZM479.051 454.854H476.463V447.481H473.021V445.259H476.463V441.988H473.412C472.875 443.876 471.996 445.593 470.775 447.139C469.562 448.685 467.951 450.053 465.941 451.241L464.354 449.312C466.6 447.986 468.289 446.456 469.42 444.722C470.559 442.989 471.231 440.987 471.434 438.716H465.526V436.519H474.12C474.12 437.658 474.042 438.741 473.888 439.766H476.463V434.371H479.051V454.854ZM498.541 438.106H485.455V435.958H490.655V433.736H493.365V435.958H498.541V438.106ZM491.998 438.96C493.056 438.96 493.991 439.127 494.805 439.461C495.619 439.795 496.25 440.267 496.697 440.877C497.153 441.487 497.385 442.191 497.393 442.989C497.385 443.786 497.153 444.49 496.697 445.101C496.25 445.711 495.619 446.183 494.805 446.517C493.991 446.85 493.056 447.017 491.998 447.017C490.94 447.017 490 446.85 489.178 446.517C488.356 446.183 487.717 445.711 487.261 445.101C486.806 444.49 486.578 443.786 486.578 442.989C486.578 442.191 486.806 441.487 487.261 440.877C487.717 440.267 488.356 439.795 489.178 439.461C490 439.127 490.94 438.96 491.998 438.96ZM491.998 441.011C491.143 441.011 490.464 441.186 489.959 441.536C489.463 441.886 489.214 442.37 489.214 442.989C489.214 443.607 489.463 444.087 489.959 444.429C490.464 444.771 491.143 444.934 491.998 444.917C492.852 444.934 493.532 444.771 494.036 444.429C494.549 444.087 494.805 443.607 494.805 442.989C494.805 442.37 494.549 441.886 494.036 441.536C493.532 441.186 492.852 441.011 491.998 441.011ZM502.837 439.693H505.914V441.915H502.837V447.652H500.127V433.833H502.837V439.693ZM502.837 455.904H500.127V450.85H488.14V448.677H502.837V455.904ZM511.389 449.166H521.106V447.066H523.816V455.635H508.704V447.066H511.389V449.166ZM521.106 453.487V451.241H511.389V453.487H521.106ZM526.404 445.821H506.287V443.599H526.404V445.821ZM517.737 434.908C517.737 435.697 518.054 436.474 518.689 437.239C519.332 438.004 520.231 438.663 521.387 439.217C522.542 439.77 523.857 440.132 525.33 440.303L524.377 442.452C522.546 442.199 520.927 441.691 519.519 440.926C518.119 440.153 517.061 439.205 516.345 438.082C515.629 439.213 514.567 440.161 513.159 440.926C511.759 441.691 510.144 442.199 508.313 442.452L507.312 440.303C508.809 440.124 510.136 439.766 511.292 439.229C512.447 438.684 513.342 438.033 513.977 437.276C514.62 436.511 514.945 435.722 514.954 434.908V434.078H517.737V434.908ZM552.492 453.218H532.326V450.997H541.017V446.187H534.547V435.542H550.172V446.187H543.703V450.997H552.492V453.218ZM537.208 444.063H547.487V437.715H537.208V444.063ZM572.152 445.455H569.564V433.858H572.152V445.455ZM567.782 445.333H565.218V440.621H561.41V438.545H565.218V434.273H567.782V445.333ZM562.704 437.129H556.869V442.549C558.325 442.533 559.542 442.496 560.519 442.439C561.495 442.374 562.492 442.256 563.509 442.085L563.656 444.234C562.476 444.429 561.308 444.559 560.152 444.625C558.997 444.69 557.495 444.722 555.648 444.722H554.183V434.981H562.704V437.129ZM572.152 451.875H559.847V453.487H572.884V455.635H557.137V449.849H569.491V448.384H557.113V446.26H572.152V451.875ZM586.106 437.935C586.106 438.749 586.265 439.538 586.582 440.303C586.899 441.068 587.38 441.756 588.022 442.366C588.674 442.977 589.467 443.461 590.403 443.819L588.962 445.894C588.002 445.528 587.176 445.011 586.484 444.344C585.793 443.676 585.243 442.899 584.836 442.012C584.413 443.038 583.835 443.945 583.103 444.734C582.379 445.524 581.508 446.13 580.491 446.553L579.026 444.478C579.994 444.047 580.812 443.477 581.479 442.769C582.147 442.061 582.647 441.292 582.981 440.462C583.315 439.624 583.486 438.781 583.494 437.935V435.201H586.106V437.935ZM598.093 447.383H595.505V441.646H593.308V446.7H590.769V434.273H593.308V439.424H595.505V433.858H598.093V447.383ZM590.647 447.75C592.177 447.75 593.507 447.912 594.639 448.238C595.778 448.555 596.657 449.019 597.275 449.629C597.894 450.24 598.207 450.964 598.215 451.802C598.207 452.64 597.894 453.365 597.275 453.975C596.657 454.594 595.778 455.066 594.639 455.391C593.507 455.717 592.177 455.879 590.647 455.879C589.101 455.879 587.758 455.717 586.619 455.391C585.479 455.066 584.604 454.594 583.994 453.975C583.384 453.365 583.079 452.64 583.079 451.802C583.079 450.964 583.384 450.24 583.994 449.629C584.604 449.019 585.479 448.555 586.619 448.238C587.758 447.912 589.101 447.75 590.647 447.75ZM590.647 449.8C589.109 449.8 587.913 449.975 587.058 450.325C586.212 450.667 585.789 451.159 585.789 451.802C585.789 452.453 586.212 452.95 587.058 453.292C587.904 453.633 589.101 453.804 590.647 453.804C592.177 453.804 593.365 453.633 594.211 453.292C595.058 452.95 595.481 452.453 595.481 451.802C595.481 451.159 595.054 450.667 594.199 450.325C593.353 449.975 592.169 449.8 590.647 449.8ZM608.159 437.007C608.151 438.025 608.342 438.985 608.732 439.888C609.123 440.792 609.709 441.589 610.49 442.281C611.28 442.964 612.236 443.485 613.359 443.843L611.894 445.967C610.706 445.552 609.689 444.958 608.842 444.185C608.004 443.412 607.345 442.492 606.865 441.426C606.368 442.655 605.656 443.721 604.729 444.625C603.801 445.52 602.682 446.195 601.372 446.651L599.931 444.454C601.119 444.063 602.124 443.497 602.946 442.757C603.768 442.016 604.387 441.162 604.802 440.193C605.217 439.225 605.424 438.204 605.424 437.129V435.03H608.159V437.007ZM618.559 446.822H615.849V440.328H611.455V438.106H615.849V433.833H618.559V446.822ZM611.088 447.408C612.643 447.408 613.986 447.575 615.117 447.908C616.256 448.242 617.127 448.73 617.729 449.373C618.331 450.008 618.632 450.769 618.632 451.656C618.632 452.543 618.331 453.304 617.729 453.938C617.127 454.573 616.26 455.053 615.129 455.379C613.998 455.713 612.651 455.879 611.088 455.879C609.534 455.879 608.191 455.713 607.06 455.379C605.937 455.053 605.074 454.573 604.472 453.938C603.878 453.304 603.585 452.543 603.593 451.656C603.585 450.769 603.878 450.008 604.472 449.373C605.074 448.73 605.941 448.242 607.072 447.908C608.203 447.575 609.542 447.408 611.088 447.408ZM611.088 449.507C609.542 449.507 608.354 449.694 607.524 450.069C606.694 450.435 606.279 450.964 606.279 451.656C606.279 452.331 606.694 452.852 607.524 453.218C608.362 453.576 609.55 453.755 611.088 453.755C612.626 453.755 613.815 453.572 614.653 453.206C615.499 452.84 615.922 452.323 615.922 451.656C615.922 450.964 615.503 450.435 614.665 450.069C613.827 449.694 612.635 449.507 611.088 449.507Z" fill="white"/>
<path d="M146.049 444.732L126.049 433.185L126.049 456.279L146.049 444.732ZM73.9487 446.732L128.049 446.732L128.049 442.732L73.9487 442.732L73.9487 446.732Z" fill="#384051"/>
<rect y="417" width="101.679" height="55.4615" rx="12" fill="#00D424"/>
<path d="M38.9553 455.904H36.3186V433.833H38.9553V455.904ZM34.3167 454.829H31.7776V444.234H27.5295V442.012H31.7776V434.273H34.3167V454.829ZM29.0432 438.594H23.3059V448.579C24.7138 448.563 25.9141 448.514 26.907 448.433C27.908 448.351 28.9211 448.205 29.9465 447.993L30.1663 450.215C28.9944 450.459 27.8184 450.622 26.6384 450.703C25.4666 450.785 23.9651 450.834 22.134 450.85H20.6448V436.421H29.0432V438.594ZM59.1282 455.928H56.3938V433.833H59.1282V455.928ZM47.2385 435.445C48.3453 435.445 49.33 435.766 50.1926 436.409C51.0634 437.044 51.747 437.951 52.2434 439.131C52.7398 440.303 52.9921 441.67 53.0002 443.233C52.9921 444.803 52.7398 446.179 52.2434 447.359C51.7551 448.539 51.0756 449.45 50.2048 450.093C49.3341 450.728 48.3453 451.045 47.2385 451.045C46.1236 451.045 45.1308 450.728 44.26 450.093C43.3892 449.45 42.7056 448.539 42.2092 447.359C41.7209 446.179 41.4768 444.803 41.4768 443.233C41.4768 441.67 41.7209 440.303 42.2092 439.131C42.7056 437.951 43.3892 437.044 44.26 436.409C45.1308 435.766 46.1236 435.445 47.2385 435.445ZM47.2385 437.886C46.6119 437.886 46.0585 438.098 45.5784 438.521C45.1064 438.944 44.7402 439.558 44.4797 440.364C44.2193 441.17 44.0891 442.126 44.0891 443.233C44.0891 444.348 44.2193 445.308 44.4797 446.114C44.7402 446.919 45.1064 447.538 45.5784 447.969C46.0585 448.392 46.6119 448.604 47.2385 448.604C47.857 448.604 48.4023 448.392 48.8743 447.969C49.3463 447.538 49.7125 446.919 49.9729 446.114C50.2333 445.308 50.3635 444.348 50.3635 443.233C50.3635 442.126 50.2333 441.174 49.9729 440.376C49.7125 439.571 49.3463 438.956 48.8743 438.533C48.4023 438.102 47.857 437.886 47.2385 437.886ZM80.1311 455.928H77.4456V444.014H73.2952V441.817H77.4456V433.833H80.1311V455.928ZM72.9534 437.959H65.3606V441.914H72.0745V444.063H65.3606V448.604C67.1672 448.596 68.7338 448.551 70.0603 448.469C71.3949 448.388 72.7336 448.238 74.0764 448.018L74.345 450.215C72.815 450.451 71.2973 450.614 69.7917 450.703C68.2862 450.785 66.4755 450.834 64.3596 450.85H62.6262V435.738H72.9534V437.959Z" fill="white"/>
</svg>
