<svg width="90" height="101" viewBox="0 0 90 101" fill="none" xmlns="http://www.w3.org/2000/svg">
<path d="M48.125 82.3594L67.8917 68.5046L71.528 88.2965L73.7475 100.377L64.1777 93.6498L48.125 82.3594Z" fill="white"/>
<path d="M10.1123 28.127L48.1245 82.359L64.4666 85.3323L67.8911 68.5042L29.879 14.2722L10.1123 28.127Z" fill="#FDD424"/>
<path d="M10.113 28.1265C10.113 28.1265 -1.441 16.7254 9.4817 7.57424C21.727 -2.68495 29.8797 14.2717 29.8797 14.2717L10.113 28.1265Z" fill="#FD6A4C"/>
<path d="M10.0457 27.9637L23.6475 47.3694L43.4248 33.5072L29.823 14.1015L10.0457 27.9637Z" fill="#1F1F1F"/>
<mask id="mask0_206_1633" style="mask-type:luminance" maskUnits="userSpaceOnUse" x="10" y="14" width="58" height="72">
<path d="M10.1123 28.127L48.1245 82.359L64.4666 85.3323L67.8911 68.5042L29.879 14.2722L10.1123 28.127Z" fill="white"/>
</mask>
<g mask="url(#mask0_206_1633)">
<path d="M66.762 88.6072C66.0247 89.124 65.0082 88.9452 64.4915 88.208L22.3009 28.0146C21.7841 27.2773 21.9629 26.2608 22.7001 25.7441C23.4373 25.2273 24.4539 25.4061 24.9706 26.1433L67.1612 86.3367C67.6779 87.0739 67.4992 88.0905 66.762 88.6072Z" fill="#1F1F1F"/>
</g>
<mask id="mask1_206_1633" style="mask-type:luminance" maskUnits="userSpaceOnUse" x="48" y="68" width="26" height="33">
<path d="M48.125 82.3594L67.8917 68.5046L71.528 88.2965L73.7475 100.377L64.1778 93.6498L48.125 82.3594Z" fill="white"/>
</mask>
<g mask="url(#mask1_206_1633)">
<path d="M76.0274 89.2713L79.3079 107.313L65.0106 97.294L76.0274 89.2713Z" fill="#1F1F1F"/>
</g>
</svg>
