<svg width="604" height="440" viewBox="0 0 604 440" fill="none" xmlns="http://www.w3.org/2000/svg">
<path d="M108.984 28.2188H105.016V18.0312H100.359V14.8125H105.016V7.46875H108.984V28.2188ZM109.672 35.375H90.1094V26.4062H94.1094V32.1875H109.672V35.375ZM95.7656 13.0312C95.7656 14.1667 96 15.276 96.4688 16.3594C96.9479 17.4427 97.6771 18.4219 98.6562 19.2969C99.6354 20.1719 100.849 20.8438 102.297 21.3125L100.328 24.4688C98.7969 23.9792 97.4792 23.2448 96.375 22.2656C95.2812 21.2865 94.4115 20.1302 93.7656 18.7969C93.1198 20.276 92.2188 21.5521 91.0625 22.625C89.9167 23.6979 88.526 24.5104 86.8906 25.0625L84.8594 21.8125C86.3594 21.3438 87.6198 20.651 88.6406 19.7344C89.6719 18.8177 90.4375 17.7812 90.9375 16.625C91.4375 15.4583 91.6927 14.25 91.7031 13V12.5625H85.9844V9.375H101.422V12.5625H95.7656V13.0312ZM138.672 24.6562H127.953V29.5625H124.016V24.6562H112.641V21.5H138.672V24.6562ZM135.328 19.1562H115.891V8.6875H135.328V19.1562ZM119.797 16.0625H131.422V11.7812H119.797V16.0625ZM135.797 35.375H115.703V27.0938H119.672V32.1875H135.797V35.375ZM162.766 18.3438H166.797V21.625H162.766V35.8125H158.766V7.4375H162.766V18.3438ZM155.172 10.3438C155.151 14.875 154.13 18.8802 152.109 22.3594C150.099 25.8281 146.818 28.6771 142.266 30.9062L140.016 27.8438C143.401 26.1458 146 24.1354 147.812 21.8125C149.635 19.4896 150.734 16.75 151.109 13.5938H141.641V10.3438H155.172ZM186.422 13.875C186.422 15.6562 186.693 17.3802 187.234 19.0469C187.776 20.7031 188.583 22.1771 189.656 23.4688C190.74 24.75 192.057 25.7188 193.609 26.375L191.266 29.5625C189.682 28.8438 188.318 27.8177 187.172 26.4844C186.036 25.1406 185.135 23.5625 184.469 21.75C183.802 23.7292 182.875 25.4479 181.688 26.9062C180.51 28.3646 179.078 29.4792 177.391 30.25L174.984 26.9375C176.589 26.2604 177.943 25.2552 179.047 23.9219C180.151 22.5781 180.979 21.0417 181.531 19.3125C182.094 17.5833 182.38 15.7708 182.391 13.875V9.625H186.422V13.875ZM199.172 35.9375H195.141V7.4375H199.172V35.9375ZM217.984 11.1875C217.984 12.6042 218.385 13.9896 219.188 15.3438C220 16.6979 221.172 17.875 222.703 18.875C224.245 19.875 226.047 20.5521 228.109 20.9062L226.359 24.2188C223.922 23.7396 221.797 22.849 219.984 21.5469C218.182 20.2448 216.812 18.6615 215.875 16.7969C214.917 18.651 213.531 20.2292 211.719 21.5312C209.917 22.8333 207.807 23.7292 205.391 24.2188L203.672 20.9062C205.703 20.5417 207.479 19.8594 209 18.8594C210.521 17.8594 211.688 16.6823 212.5 15.3281C213.312 13.9635 213.724 12.5833 213.734 11.1875V9.125H217.984V11.1875ZM229.047 32.375H203.016V29.0938H229.047V32.375ZM242.641 12.3438H235.609V14.5938H241.578V17.6562H235.609V20.1406C237.286 20.1094 238.729 20.0521 239.938 19.9688C241.146 19.875 242.37 19.7292 243.609 19.5312L244.016 22.625C242.464 22.8854 240.943 23.0625 239.453 23.1562C237.964 23.2396 236.057 23.2812 233.734 23.2812H231.797V9.125H242.641V12.3438ZM255.109 24.4062H251.328V7.4375H255.109V24.4062ZM249.453 24.2188H245.672V17.4688H242.797V14.2812H245.672V7.875H249.453V24.2188ZM255.109 35.5625H235.703V25.5312H255.109V35.5625ZM239.672 32.375H251.172V28.6562H239.672V32.375ZM259.984 24.375C259.984 21.5312 260.396 18.875 261.219 16.4062C262.042 13.9271 263.234 11.5938 264.797 9.40625H269.203C268.464 10.4792 267.755 11.8438 267.078 13.5C266.401 15.1458 265.849 16.9271 265.422 18.8438C265.005 20.75 264.797 22.5938 264.797 24.375C264.797 26.1667 265.005 28.0208 265.422 29.9375C265.849 31.8438 266.401 33.625 267.078 35.2812C267.755 36.9375 268.464 38.3021 269.203 39.375H264.797C261.589 34.8646 259.984 29.8646 259.984 24.375ZM271.859 10.375H287.047V14.25H276.547V19.75H286.266V23.625H276.547V29.125H287.078V33H271.859V10.375ZM297.609 22L300.828 16.0312H305.609L300.641 24.5L305.734 33H300.984L297.609 27.0938L294.297 33H289.484L294.547 24.5L289.672 16.0312H294.453L297.609 22ZM308.234 16.0312H312.797V18.875H312.984C313.37 18.0208 313.953 17.2969 314.734 16.7031C315.516 16.1094 316.547 15.8125 317.828 15.8125C319.109 15.8125 320.271 16.1458 321.312 16.8125C322.354 17.4688 323.177 18.4531 323.781 19.7656C324.396 21.0677 324.703 22.6562 324.703 24.5312C324.703 26.3646 324.401 27.9427 323.797 29.2656C323.203 30.5781 322.385 31.5781 321.344 32.2656C320.312 32.9427 319.141 33.2812 317.828 33.2812C316.568 33.2812 315.542 32.9948 314.75 32.4219C313.969 31.8385 313.38 31.125 312.984 30.2812H312.859V39.375H308.234V16.0312ZM312.766 24.5C312.766 25.5208 312.906 26.4167 313.188 27.1875C313.469 27.9479 313.88 28.5417 314.422 28.9688C314.964 29.3854 315.609 29.5938 316.359 29.5938C317.516 29.5938 318.406 29.1302 319.031 28.2031C319.667 27.276 319.984 26.0417 319.984 24.5C319.984 22.9792 319.667 21.7656 319.031 20.8594C318.406 19.9531 317.516 19.5 316.359 19.5C315.214 19.5 314.328 19.9479 313.703 20.8438C313.078 21.7292 312.766 22.9479 312.766 24.5ZM335.391 33.3438C333.672 33.3438 332.182 32.9896 330.922 32.2812C329.672 31.5729 328.708 30.5625 328.031 29.25C327.354 27.9271 327.016 26.375 327.016 24.5938C327.016 22.8542 327.349 21.3229 328.016 20C328.693 18.6667 329.651 17.6354 330.891 16.9062C332.13 16.1771 333.568 15.8125 335.203 15.8125C336.724 15.8125 338.083 16.1354 339.281 16.7812C340.49 17.4167 341.438 18.3802 342.125 19.6719C342.823 20.9635 343.172 22.5417 343.172 24.4062V25.7188H331.578C331.578 26.5625 331.734 27.2969 332.047 27.9219C332.37 28.5469 332.823 29.0312 333.406 29.375C334 29.7083 334.693 29.875 335.484 29.875C336.245 29.875 336.901 29.724 337.453 29.4219C338.005 29.1094 338.401 28.6875 338.641 28.1562H343.047C342.828 29.1979 342.38 30.1094 341.703 30.8906C341.026 31.6719 340.146 32.276 339.062 32.7031C337.99 33.1302 336.766 33.3438 335.391 33.3438ZM338.797 22.8125C338.797 22.1354 338.646 21.5312 338.344 21C338.052 20.4583 337.641 20.0365 337.109 19.7344C336.578 19.4323 335.974 19.2812 335.297 19.2812C334.609 19.2812 333.984 19.4375 333.422 19.75C332.87 20.0625 332.427 20.4896 332.094 21.0312C331.771 21.5729 331.599 22.1667 331.578 22.8125H338.797ZM346.078 16.0312H350.547V18.9688H350.734C351.036 17.9375 351.552 17.151 352.281 16.6094C353.01 16.0573 353.859 15.7812 354.828 15.7812C355.359 15.7812 355.849 15.8333 356.297 15.9375V20.0625C356.068 20 355.76 19.9427 355.375 19.8906C354.99 19.8385 354.641 19.8125 354.328 19.8125C353.641 19.8125 353.021 19.9635 352.469 20.2656C351.917 20.5677 351.484 20.9896 351.172 21.5312C350.859 22.0625 350.703 22.6667 350.703 23.3438V33H346.078V16.0312ZM368.328 19.5H365.141V27.7812C365.141 28.4062 365.276 28.8438 365.547 29.0938C365.818 29.3438 366.214 29.4792 366.734 29.5C367.401 29.5 368.016 29.4688 368.578 29.4062V33.0625C368.026 33.1667 367.203 33.2188 366.109 33.2188C364.37 33.2188 363 32.8177 362 32.0156C361 31.2135 360.505 30.0208 360.516 28.4375V19.5H358.172V16.0312H360.516V11.9688H365.141V16.0312H368.328V19.5ZM390.984 16.8438C390.891 15.9479 390.5 15.25 389.812 14.75C389.125 14.25 388.214 14 387.078 14C386.297 14 385.625 14.1146 385.062 14.3438C384.51 14.5625 384.089 14.8698 383.797 15.2656C383.505 15.6615 383.359 16.1146 383.359 16.625C383.359 17.3542 383.688 17.9375 384.344 18.375C385 18.8125 385.88 19.1562 386.984 19.4062L389.016 19.9062C391.109 20.375 392.76 21.151 393.969 22.2344C395.188 23.3073 395.797 24.7396 395.797 26.5312C395.797 27.9167 395.448 29.1198 394.75 30.1406C394.052 31.151 393.047 31.9323 391.734 32.4844C390.422 33.0365 388.859 33.3125 387.047 33.3125C385.214 33.3125 383.62 33.0312 382.266 32.4688C380.922 31.9062 379.875 31.0781 379.125 29.9844C378.385 28.8802 377.995 27.5312 377.953 25.9375H382.516C382.589 27.0521 383.026 27.9062 383.828 28.5C384.641 29.0833 385.693 29.375 386.984 29.375C387.797 29.375 388.51 29.2552 389.125 29.0156C389.74 28.776 390.214 28.4427 390.547 28.0156C390.88 27.5885 391.047 27.0938 391.047 26.5312C391.047 25.8021 390.729 25.224 390.094 24.7969C389.469 24.3698 388.495 23.9896 387.172 23.6562L384.703 23.0625C380.599 22.0521 378.547 20 378.547 16.9062C378.547 15.5521 378.911 14.3594 379.641 13.3281C380.38 12.2865 381.401 11.4844 382.703 10.9219C384.005 10.349 385.474 10.0625 387.109 10.0625C388.755 10.0625 390.208 10.349 391.469 10.9219C392.729 11.4948 393.708 12.2969 394.406 13.3281C395.104 14.349 395.464 15.5208 395.484 16.8438H390.984ZM401.484 39.375C400.516 39.375 399.734 39.3438 399.141 39.2812V35.6875C399.932 35.7292 400.557 35.75 401.016 35.75C401.38 35.75 401.682 35.7188 401.922 35.6562C402.172 35.5938 402.406 35.4479 402.625 35.2188C402.854 34.9896 403.057 34.6458 403.234 34.1875L403.516 33.4688L397.422 16.0312H402.266L405.828 28.5312H406.016L409.609 16.0312H414.516L407.891 34.875C407.38 36.3229 406.615 37.4323 405.594 38.2031C404.573 38.9844 403.203 39.375 401.484 39.375ZM426.453 21.0625C426.359 20.4688 426.062 19.9948 425.562 19.6406C425.062 19.276 424.432 19.0938 423.672 19.0938C423.172 19.0938 422.719 19.1719 422.312 19.3281C421.917 19.474 421.604 19.6823 421.375 19.9531C421.146 20.2135 421.036 20.5104 421.047 20.8438C421.016 21.6458 421.745 22.2083 423.234 22.5312L426.266 23.1562C427.911 23.5 429.135 24.0469 429.938 24.7969C430.75 25.5469 431.161 26.5312 431.172 27.75C431.161 28.8542 430.839 29.8281 430.203 30.6719C429.578 31.5156 428.698 32.1719 427.562 32.6406C426.427 33.1094 425.12 33.3438 423.641 33.3438C422.13 33.3438 420.823 33.1302 419.719 32.7031C418.615 32.2656 417.745 31.6458 417.109 30.8438C416.484 30.0312 416.109 29.0729 415.984 27.9688H420.641C420.745 28.6354 421.057 29.1406 421.578 29.4844C422.099 29.8281 422.786 30 423.641 30C424.484 30 425.161 29.8385 425.672 29.5156C426.193 29.1927 426.453 28.7604 426.453 28.2188C426.453 27.7812 426.266 27.4271 425.891 27.1562C425.526 26.875 424.943 26.6458 424.141 26.4688L421.328 25.9062C419.724 25.5938 418.505 25.026 417.672 24.2031C416.839 23.3802 416.432 22.3438 416.453 21.0938C416.443 20.0208 416.729 19.0885 417.312 18.2969C417.896 17.4948 418.729 16.8802 419.812 16.4531C420.896 16.026 422.161 15.8125 423.609 15.8125C425.016 15.8125 426.245 16.026 427.297 16.4531C428.349 16.8802 429.172 17.4896 429.766 18.2812C430.37 19.0625 430.714 19.9896 430.797 21.0625H426.453ZM442.953 19.5H439.766V27.7812C439.766 28.4062 439.901 28.8438 440.172 29.0938C440.443 29.3438 440.839 29.4792 441.359 29.5C442.026 29.5 442.641 29.4688 443.203 29.4062V33.0625C442.651 33.1667 441.828 33.2188 440.734 33.2188C438.995 33.2188 437.625 32.8177 436.625 32.0156C435.625 31.2135 435.13 30.0208 435.141 28.4375V19.5H432.797V16.0312H435.141V11.9688H439.766V16.0312H442.953V19.5ZM453.359 33.3438C451.641 33.3438 450.151 32.9896 448.891 32.2812C447.641 31.5729 446.677 30.5625 446 29.25C445.323 27.9271 444.984 26.375 444.984 24.5938C444.984 22.8542 445.318 21.3229 445.984 20C446.661 18.6667 447.62 17.6354 448.859 16.9062C450.099 16.1771 451.536 15.8125 453.172 15.8125C454.693 15.8125 456.052 16.1354 457.25 16.7812C458.458 17.4167 459.406 18.3802 460.094 19.6719C460.792 20.9635 461.141 22.5417 461.141 24.4062V25.7188H449.547C449.547 26.5625 449.703 27.2969 450.016 27.9219C450.339 28.5469 450.792 29.0312 451.375 29.375C451.969 29.7083 452.661 29.875 453.453 29.875C454.214 29.875 454.87 29.724 455.422 29.4219C455.974 29.1094 456.37 28.6875 456.609 28.1562H461.016C460.797 29.1979 460.349 30.1094 459.672 30.8906C458.995 31.6719 458.115 32.276 457.031 32.7031C455.958 33.1302 454.734 33.3438 453.359 33.3438ZM456.766 22.8125C456.766 22.1354 456.615 21.5312 456.312 21C456.021 20.4583 455.609 20.0365 455.078 19.7344C454.547 19.4323 453.943 19.2812 453.266 19.2812C452.578 19.2812 451.953 19.4375 451.391 19.75C450.839 20.0625 450.396 20.4896 450.062 21.0312C449.74 21.5729 449.568 22.1667 449.547 22.8125H456.766ZM464.047 16.0312H468.453V19H468.641C469.005 18.0104 469.599 17.2344 470.422 16.6719C471.245 16.099 472.224 15.8125 473.359 15.8125C474.526 15.8125 475.516 16.099 476.328 16.6719C477.151 17.2344 477.703 18.0104 477.984 19H478.141C478.505 18.0208 479.141 17.2448 480.047 16.6719C480.953 16.099 482.026 15.8125 483.266 15.8125C484.318 15.8125 485.245 16.0417 486.047 16.5C486.859 16.9479 487.49 17.6094 487.938 18.4844C488.385 19.349 488.609 20.3854 488.609 21.5938V33H483.984V22.5C483.984 21.5625 483.74 20.849 483.25 20.3594C482.771 19.8698 482.13 19.625 481.328 19.625C480.464 19.625 479.786 19.901 479.297 20.4531C478.818 20.9948 478.578 21.7188 478.578 22.625V33H474.078V22.375C474.078 21.5417 473.839 20.875 473.359 20.375C472.88 19.875 472.245 19.625 471.453 19.625C470.932 19.625 470.458 19.7604 470.031 20.0312C469.615 20.2917 469.281 20.6615 469.031 21.1406C468.792 21.6198 468.672 22.1771 468.672 22.8125V33H464.047V16.0312ZM500.328 24.375C500.328 29.8646 498.724 34.8646 495.516 39.375H491.109C491.849 38.3021 492.557 36.9375 493.234 35.2812C493.911 33.625 494.458 31.8438 494.875 29.9375C495.302 28.0208 495.516 26.1667 495.516 24.375C495.516 22.5938 495.302 20.75 494.875 18.8438C494.458 16.9271 493.911 15.1458 493.234 13.5C492.557 11.8438 491.849 10.4792 491.109 9.40625H495.516C497.078 11.5938 498.271 13.9271 499.094 16.4062C499.917 18.875 500.328 21.5312 500.328 24.375Z" fill="black"/>
<path d="M603.672 292.393L599.317 265.16L590.188 266.618L594.542 293.85L603.672 292.393ZM602.397 289.122L602.642 290.577L595.226 291.826L594.98 290.37L602.397 289.122ZM591.216 267.979L598.632 266.73L598.878 268.186L591.461 269.435L591.216 267.979Z" fill="#002073"/>
<path d="M604 294.918H569.378V297.999H604V294.918Z" fill="#002073"/>
<path d="M537.884 315.73C518.947 315.73 503.592 331.073 503.592 349.999H572.177C572.177 331.072 556.823 315.73 537.885 315.73H537.884Z" fill="#002073"/>
<path d="M579.705 260V293.851H588.173V260H579.705ZM587.286 291.592H580.59V290.116H587.286V291.592ZM587.288 264.087H580.592V262.612H587.288V264.087Z" fill="#002073"/>
<path d="M570.697 262.758V293.853H577.785V262.758H570.697ZM576.801 291.594H571.681V290.118H576.801V291.594ZM576.801 266.91H571.681V265.434H576.801V266.91Z" fill="#002073"/>
<path d="M537.884 311.481C547.245 311.481 554.838 303.896 554.838 294.536C554.838 285.176 547.247 277.594 537.884 277.594C528.521 277.594 520.93 285.179 520.93 294.536C520.93 303.893 528.521 311.481 537.884 311.481Z" fill="#002073"/>
<path d="M561.499 288.799V278.595C561.499 278.449 561.442 278.303 561.348 278.173C561.348 278.157 561.329 278.14 561.31 278.124C561.215 277.994 561.064 277.913 560.914 277.848H560.895L538.042 270.049C537.797 269.968 537.552 269.968 537.306 270.049L514.19 277.848C513.699 278.01 513.473 278.482 513.662 278.904C513.756 279.115 513.945 279.278 514.19 279.359L521.908 281.942V289.465C521.908 289.465 521.908 289.595 521.927 289.66C522.399 291.317 523.908 292.617 525.833 293.023C529.645 294.095 533.627 294.664 537.646 294.696H538.024C542.175 294.696 546.289 294.128 550.233 293.023C552.026 292.519 553.403 291.252 553.856 289.676C553.875 289.611 553.894 289.546 553.875 289.481V281.78L559.593 279.814V288.815C557.46 289.237 556.139 291.073 556.63 292.909C556.97 294.177 558.121 295.168 559.593 295.46V300.204C559.593 300.659 560.008 301.017 560.536 301.017C561.064 301.017 561.48 300.659 561.48 300.204V295.46C563.612 295.038 564.933 293.202 564.442 291.366C564.103 290.098 562.952 289.107 561.48 288.815L561.499 288.799Z" fill="#002073"/>
<path d="M19.8737 370.438C19.8685 371.307 19.9909 372.151 20.2409 372.969C20.4909 373.781 20.8685 374.51 21.3737 375.156C21.8789 375.802 22.4987 376.302 23.2331 376.656L22.0299 378.25C21.2903 377.885 20.6575 377.372 20.1315 376.711C19.6107 376.049 19.1966 375.273 18.8893 374.383C18.5716 375.331 18.1315 376.161 17.569 376.875C17.0117 377.583 16.3424 378.13 15.5612 378.516L14.3268 376.906C15.1028 376.552 15.7565 376.039 16.2877 375.367C16.819 374.69 17.2148 373.927 17.4752 373.078C17.7409 372.224 17.8737 371.344 17.8737 370.438V368.312H19.8737V370.438ZM25.8581 372.703H27.9518V374.391H25.8581V381.438H23.8581V367.219H25.8581V372.703ZM40.9562 375.547H27.9874V373.953H30.9093V372.25C30.3833 372.016 29.9796 371.724 29.6984 371.375C29.4223 371.026 29.2843 370.625 29.2843 370.172C29.2843 369.604 29.4952 369.115 29.9171 368.703C30.339 368.286 30.9406 367.969 31.7218 367.75C32.5031 367.531 33.4197 367.422 34.4718 367.422C35.5135 367.422 36.4223 367.531 37.1984 367.75C37.9744 367.969 38.5734 368.286 38.9952 368.703C39.4223 369.115 39.6385 369.604 39.6437 370.172C39.6385 370.625 39.4926 371.031 39.2062 371.391C38.9197 371.745 38.5083 372.036 37.9718 372.266V373.953H40.9562V375.547ZM34.4562 376.297C35.4822 376.297 36.365 376.396 37.1046 376.594C37.8442 376.792 38.4119 377.081 38.8077 377.461C39.2036 377.841 39.4041 378.302 39.4093 378.844C39.4041 379.396 39.2036 379.865 38.8077 380.25C38.4119 380.635 37.8442 380.927 37.1046 381.125C36.365 381.323 35.4822 381.422 34.4562 381.422C33.4145 381.422 32.5213 381.323 31.7765 381.125C31.0317 380.927 30.4614 380.635 30.0656 380.25C29.6697 379.865 29.4718 379.396 29.4718 378.844C29.4718 378.302 29.6697 377.841 30.0656 377.461C30.4614 377.081 31.0317 376.792 31.7765 376.594C32.5213 376.396 33.4145 376.297 34.4562 376.297ZM34.4562 377.797C32.4718 377.797 31.4874 378.146 31.5031 378.844C31.4874 379.573 32.4718 379.938 34.4562 379.938C36.4093 379.938 37.3937 379.573 37.4093 378.844C37.3937 378.146 36.4093 377.797 34.4562 377.797ZM34.4718 368.953C33.4614 368.953 32.688 369.057 32.1515 369.266C31.6202 369.474 31.3572 369.776 31.3624 370.172C31.3572 370.557 31.6202 370.849 32.1515 371.047C32.6827 371.245 33.4562 371.344 34.4718 371.344C35.477 371.344 36.2452 371.245 36.7765 371.047C37.313 370.849 37.5812 370.557 37.5812 370.172C37.5812 369.776 37.313 369.474 36.7765 369.266C36.24 369.057 35.4718 368.953 34.4718 368.953ZM35.9874 373.953V372.766C35.5395 372.818 35.0343 372.844 34.4718 372.844C33.8781 372.844 33.3624 372.815 32.9249 372.758V373.953H35.9874ZM46.5856 371.094C46.5803 371.839 46.708 372.586 46.9684 373.336C47.234 374.086 47.6298 374.773 48.1559 375.398C48.6819 376.018 49.3199 376.5 50.0699 376.844L48.9606 378.406C48.1897 378.052 47.5205 377.539 46.9527 376.867C46.385 376.19 45.9371 375.409 45.609 374.523C45.2809 375.497 44.8225 376.354 44.234 377.094C43.6507 377.833 42.9606 378.391 42.1637 378.766L41.0074 377.188C41.7678 376.833 42.4163 376.331 42.9527 375.68C43.4892 375.023 43.8928 374.297 44.1637 373.5C44.4397 372.703 44.5803 371.901 44.5856 371.094V370.219H41.5699V368.594H49.4449V370.219H46.5856V371.094ZM52.5543 372.641H54.6481V374.312H52.5543V381.438H50.5543V367.219H52.5543V372.641Z" fill="black"/>
<path d="M529.089 377.609H527.104V372.516H524.776V370.906H527.104V367.234H529.089V377.609ZM529.433 381.188H519.651V376.703H521.651V379.594H529.433V381.188ZM522.479 370.016C522.479 370.583 522.597 371.138 522.831 371.68C523.071 372.221 523.435 372.711 523.925 373.148C524.414 373.586 525.021 373.922 525.745 374.156L524.761 375.734C523.995 375.49 523.336 375.122 522.784 374.633C522.237 374.143 521.802 373.565 521.479 372.898C521.156 373.638 520.706 374.276 520.128 374.812C519.555 375.349 518.86 375.755 518.042 376.031L517.026 374.406C517.776 374.172 518.406 373.826 518.917 373.367C519.433 372.909 519.815 372.391 520.065 371.812C520.315 371.229 520.443 370.625 520.448 370V369.781H517.589V368.188H525.308V369.781H522.479V370.016ZM543.453 375.828H538.093V378.281H536.124V375.828H530.437V374.25H543.453V375.828ZM541.781 373.078H532.062V367.844H541.781V373.078ZM534.015 371.531H539.828V369.391H534.015V371.531ZM542.015 381.188H531.968V377.047H533.953V379.594H542.015V381.188ZM555.019 372.672H557.035V374.312H555.019V381.406H553.019V367.219H555.019V372.672ZM551.223 368.672C551.212 370.938 550.702 372.94 549.691 374.68C548.686 376.414 547.045 377.839 544.769 378.953L543.644 377.422C545.337 376.573 546.637 375.568 547.543 374.406C548.454 373.245 549.004 371.875 549.191 370.297H544.457V368.672H551.223Z" fill="black"/>
<path d="M458.122 122.609H456.138V117.516H453.809V115.906H456.138V112.234H458.122V122.609ZM458.466 126.188H448.684V121.703H450.684V124.594H458.466V126.188ZM451.513 115.016C451.513 115.583 451.63 116.138 451.864 116.68C452.104 117.221 452.468 117.711 452.958 118.148C453.447 118.586 454.054 118.922 454.778 119.156L453.794 120.734C453.028 120.49 452.369 120.122 451.817 119.633C451.27 119.143 450.835 118.565 450.513 117.898C450.19 118.638 449.739 119.276 449.161 119.812C448.588 120.349 447.893 120.755 447.075 121.031L446.059 119.406C446.809 119.172 447.44 118.826 447.95 118.367C448.466 117.909 448.848 117.391 449.098 116.812C449.348 116.229 449.476 115.625 449.481 115V114.781H446.622V113.188H454.341V114.781H451.513V115.016ZM472.486 120.828H467.126V123.281H465.158V120.828H459.47V119.25H472.486V120.828ZM470.814 118.078H461.095V112.844H470.814V118.078ZM463.048 116.531H468.861V114.391H463.048V116.531ZM471.048 126.188H461.001V122.047H462.986V124.594H471.048V126.188ZM484.053 117.672H486.068V119.312H484.053V126.406H482.053V112.219H484.053V117.672ZM480.256 113.672C480.245 115.938 479.735 117.94 478.724 119.68C477.719 121.414 476.079 122.839 473.803 123.953L472.678 122.422C474.37 121.573 475.67 120.568 476.576 119.406C477.487 118.245 478.037 116.875 478.224 115.297H473.49V113.672H480.256ZM499.198 124.859H486.182V123.219H491.666V121.078H487.682V116.297H495.729V114.734H487.666V113.141H497.698V117.859H489.682V119.453H498.026V121.078H493.651V123.219H499.198V124.859ZM512.53 121.984H506.968V126.438H504.999V121.984H499.514V120.422H512.53V121.984ZM503.014 114.406H508.983V112.766H510.983V119.047H501.046V112.766H503.014V114.406ZM508.983 117.453V115.969H503.014V117.453H508.983ZM524.878 126.469H522.909V118.844H520.409V117.234H522.909V112.219H524.878V126.469ZM520.175 115.016H515.519V117.375H519.659V118.938H515.519V121.625C516.592 121.615 517.537 121.586 518.355 121.539C519.172 121.487 519.998 121.396 520.831 121.266L521.034 122.859C520.045 123.01 519.06 123.115 518.081 123.172C517.102 123.224 515.961 123.25 514.659 123.25H513.534V113.406H520.175V115.016ZM448.032 138.094C448.032 138.88 448.164 139.654 448.43 140.414C448.701 141.169 449.104 141.849 449.641 142.453C450.177 143.057 450.828 143.521 451.594 143.844L450.516 145.406C449.698 145.062 448.998 144.557 448.414 143.891C447.831 143.224 447.373 142.445 447.039 141.555C446.711 142.523 446.25 143.375 445.657 144.109C445.063 144.839 444.36 145.391 443.547 145.766L442.407 144.188C443.167 143.849 443.815 143.357 444.352 142.711C444.894 142.065 445.3 141.341 445.571 140.539C445.847 139.732 445.985 138.917 445.985 138.094V137.219H442.969V135.594H451V137.219H448.032V138.094ZM454.422 148.438H452.407V134.219H454.422V148.438ZM461.317 136.234C461.312 136.849 461.427 137.432 461.661 137.984C461.901 138.536 462.27 139.029 462.77 139.461C463.276 139.888 463.906 140.214 464.661 140.438L463.661 142C462.869 141.75 462.19 141.383 461.622 140.898C461.059 140.414 460.614 139.839 460.286 139.172C459.958 139.891 459.502 140.513 458.919 141.039C458.335 141.56 457.635 141.953 456.817 142.219L455.817 140.656C456.578 140.411 457.213 140.06 457.723 139.602C458.239 139.143 458.619 138.625 458.864 138.047C459.114 137.464 459.239 136.859 459.239 136.234V134.875H461.317V136.234ZM467.77 148.438H465.77V144.906H457.989V143.312H467.77V148.438ZM467.77 142.703H465.77V134.219H467.77V142.703ZM475.697 134.422C476.785 134.422 477.715 134.516 478.486 134.703C479.256 134.891 479.845 135.167 480.251 135.531C480.658 135.891 480.863 136.328 480.868 136.844C480.863 137.365 480.658 137.807 480.251 138.172C479.845 138.536 479.256 138.812 478.486 139C477.715 139.188 476.785 139.281 475.697 139.281C474.603 139.281 473.668 139.188 472.892 139C472.116 138.812 471.525 138.536 471.118 138.172C470.712 137.807 470.509 137.365 470.509 136.844C470.509 136.328 470.712 135.891 471.118 135.531C471.525 135.167 472.116 134.891 472.892 134.703C473.668 134.516 474.603 134.422 475.697 134.422ZM475.697 135.875C474.66 135.875 473.881 135.958 473.361 136.125C472.845 136.286 472.592 136.526 472.603 136.844C472.598 137.188 472.845 137.435 473.345 137.586C473.845 137.737 474.629 137.812 475.697 137.812C476.769 137.812 477.556 137.737 478.056 137.586C478.556 137.435 478.806 137.188 478.806 136.844C478.806 136.526 478.548 136.286 478.033 136.125C477.517 135.958 476.738 135.875 475.697 135.875ZM482.181 141.531H469.212V139.953H482.181V141.531ZM480.603 145.984H472.681V146.844H480.978V148.344H470.728V144.594H478.634V143.812H470.712V142.359H480.603V145.984ZM497.846 144.531H490.174V146.688H498.033V148.281H488.174V142.938H497.846V144.531ZM497.752 142.281H495.768V139.172H493.408C493.294 139.703 493.062 140.174 492.713 140.586C492.369 140.997 491.94 141.318 491.424 141.547C490.908 141.776 490.346 141.891 489.737 141.891C489.028 141.891 488.385 141.742 487.807 141.445C487.229 141.143 486.773 140.729 486.44 140.203C486.112 139.677 485.95 139.089 485.955 138.438C485.95 137.766 486.112 137.164 486.44 136.633C486.768 136.102 487.221 135.688 487.799 135.391C488.377 135.089 489.023 134.938 489.737 134.938C490.33 134.938 490.88 135.047 491.385 135.266C491.89 135.479 492.315 135.784 492.658 136.18C493.007 136.576 493.247 137.031 493.377 137.547H495.768V134.219H497.752V142.281ZM489.737 136.609C489.367 136.609 489.036 136.682 488.744 136.828C488.458 136.974 488.234 137.185 488.073 137.461C487.916 137.737 487.841 138.062 487.846 138.438C487.841 138.792 487.916 139.102 488.073 139.367C488.234 139.633 488.458 139.839 488.744 139.984C489.036 140.13 489.367 140.203 489.737 140.203C490.086 140.203 490.401 140.13 490.682 139.984C490.968 139.839 491.192 139.633 491.354 139.367C491.515 139.096 491.596 138.786 491.596 138.438C491.596 138.062 491.515 137.737 491.354 137.461C491.192 137.185 490.971 136.974 490.69 136.828C490.408 136.682 490.091 136.609 489.737 136.609ZM510.663 139.656H500.725V134.719H502.71V138.094H510.663V139.656ZM512.116 142.75H499.1V141.188H512.116V142.75ZM510.757 148.125H500.6V143.906H502.6V146.531H510.757V148.125ZM523.683 139.5H525.777V141.125H523.683V148.469H521.683V134.219H523.683V139.5ZM519.698 137.141H515.011V143.375C516.131 143.365 517.131 143.326 518.011 143.258C518.891 143.19 519.777 143.078 520.667 142.922L520.886 144.594C519.933 144.755 518.993 144.867 518.066 144.93C517.144 144.987 516.084 145.016 514.886 145.016H514.23H513.027V135.531H519.698V137.141ZM527.656 147.141C527.416 147.141 527.195 147.081 526.992 146.961C526.789 146.841 526.627 146.682 526.507 146.484C526.393 146.281 526.338 146.062 526.343 145.828C526.338 145.594 526.393 145.378 526.507 145.18C526.627 144.982 526.789 144.826 526.992 144.711C527.195 144.591 527.416 144.531 527.656 144.531C527.88 144.531 528.091 144.591 528.289 144.711C528.492 144.826 528.653 144.982 528.773 145.18C528.893 145.378 528.953 145.594 528.953 145.828C528.953 146.062 528.893 146.281 528.773 146.484C528.653 146.682 528.492 146.841 528.289 146.961C528.091 147.081 527.88 147.141 527.656 147.141Z" fill="black"/>
<path d="M34.2918 316.137C15.3544 316.137 0 331.48 0 350.405H68.5848C68.5848 331.478 53.2304 316.137 34.2929 316.137H34.2918Z" fill="#002073"/>
<path d="M34.2916 311.888C43.6532 311.888 51.2452 304.302 51.2452 294.942C51.2452 285.582 43.6543 278 34.2916 278C24.9288 278 17.3379 285.585 17.3379 294.942C17.3379 304.299 24.9288 311.888 34.2916 311.888Z" fill="#002073"/>
<rect x="133" y="212" width="350.789" height="228" rx="24" fill="#E1E1E8"/>
<rect x="144.877" y="263" width="53.9675" height="127" fill="#00D424"/>
<path d="M157.755 301.438C157.749 302.307 157.872 303.151 158.122 303.969C158.372 304.781 158.749 305.51 159.255 306.156C159.76 306.802 160.38 307.302 161.114 307.656L159.911 309.25C159.171 308.885 158.538 308.372 158.012 307.711C157.492 307.049 157.077 306.273 156.77 305.383C156.452 306.331 156.012 307.161 155.45 307.875C154.893 308.583 154.223 309.13 153.442 309.516L152.208 307.906C152.984 307.552 153.637 307.039 154.169 306.367C154.7 305.69 155.096 304.927 155.356 304.078C155.622 303.224 155.755 302.344 155.755 301.438V299.312H157.755V301.438ZM163.739 303.703H165.833V305.391H163.739V312.438H161.739V298.219H163.739V303.703ZM178.837 306.547H165.868V304.953H168.79V303.25C168.264 303.016 167.86 302.724 167.579 302.375C167.303 302.026 167.165 301.625 167.165 301.172C167.165 300.604 167.376 300.115 167.798 299.703C168.22 299.286 168.821 298.969 169.603 298.75C170.384 298.531 171.301 298.422 172.353 298.422C173.394 298.422 174.303 298.531 175.079 298.75C175.855 298.969 176.454 299.286 176.876 299.703C177.303 300.115 177.519 300.604 177.525 301.172C177.519 301.625 177.374 302.031 177.087 302.391C176.801 302.745 176.389 303.036 175.853 303.266V304.953H178.837V306.547ZM172.337 307.297C173.363 307.297 174.246 307.396 174.985 307.594C175.725 307.792 176.293 308.081 176.689 308.461C177.084 308.841 177.285 309.302 177.29 309.844C177.285 310.396 177.084 310.865 176.689 311.25C176.293 311.635 175.725 311.927 174.985 312.125C174.246 312.323 173.363 312.422 172.337 312.422C171.295 312.422 170.402 312.323 169.657 312.125C168.913 311.927 168.342 311.635 167.946 311.25C167.551 310.865 167.353 310.396 167.353 309.844C167.353 309.302 167.551 308.841 167.946 308.461C168.342 308.081 168.913 307.792 169.657 307.594C170.402 307.396 171.295 307.297 172.337 307.297ZM172.337 308.797C170.353 308.797 169.368 309.146 169.384 309.844C169.368 310.573 170.353 310.938 172.337 310.938C174.29 310.938 175.275 310.573 175.29 309.844C175.275 309.146 174.29 308.797 172.337 308.797ZM172.353 299.953C171.342 299.953 170.569 300.057 170.032 300.266C169.501 300.474 169.238 300.776 169.243 301.172C169.238 301.557 169.501 301.849 170.032 302.047C170.564 302.245 171.337 302.344 172.353 302.344C173.358 302.344 174.126 302.245 174.657 302.047C175.194 301.849 175.462 301.557 175.462 301.172C175.462 300.776 175.194 300.474 174.657 300.266C174.121 300.057 173.353 299.953 172.353 299.953ZM173.868 304.953V303.766C173.42 303.818 172.915 303.844 172.353 303.844C171.759 303.844 171.243 303.815 170.806 303.758V304.953H173.868ZM184.466 302.094C184.461 302.839 184.589 303.586 184.849 304.336C185.115 305.086 185.511 305.773 186.037 306.398C186.563 307.018 187.201 307.5 187.951 307.844L186.841 309.406C186.071 309.052 185.401 308.539 184.834 307.867C184.266 307.19 183.818 306.409 183.49 305.523C183.162 306.497 182.703 307.354 182.115 308.094C181.532 308.833 180.841 309.391 180.045 309.766L178.888 308.188C179.649 307.833 180.297 307.331 180.834 306.68C181.37 306.023 181.774 305.297 182.045 304.5C182.321 303.703 182.461 302.901 182.466 302.094V301.219H179.451V299.594H187.326V301.219H184.466V302.094ZM190.435 303.641H192.529V305.312H190.435V312.438H188.435V298.219H190.435V303.641ZM171.1 330.453H169.1V320.234H171.1V330.453ZM171.475 334.188H161.569V329.422H163.585V332.594H171.475V334.188ZM163.304 321.141C164.028 321.141 164.684 321.294 165.272 321.602C165.866 321.909 166.335 322.336 166.679 322.883C167.022 323.424 167.194 324.036 167.194 324.719C167.194 325.411 167.022 326.034 166.679 326.586C166.34 327.133 165.874 327.56 165.28 327.867C164.686 328.174 164.028 328.328 163.304 328.328C162.58 328.328 161.921 328.174 161.327 327.867C160.733 327.56 160.265 327.133 159.921 326.586C159.582 326.034 159.413 325.411 159.413 324.719C159.413 324.036 159.585 323.424 159.929 322.883C160.272 322.336 160.738 321.909 161.327 321.602C161.921 321.294 162.58 321.141 163.304 321.141ZM163.304 322.875C162.934 322.87 162.6 322.943 162.304 323.094C162.007 323.24 161.775 323.453 161.608 323.734C161.442 324.016 161.361 324.344 161.366 324.719C161.361 325.104 161.442 325.44 161.608 325.727C161.775 326.008 162.004 326.224 162.296 326.375C162.593 326.521 162.929 326.594 163.304 326.594C163.668 326.594 163.994 326.521 164.28 326.375C164.572 326.224 164.801 326.008 164.968 325.727C165.14 325.44 165.225 325.104 165.225 324.719C165.225 324.344 165.14 324.016 164.968 323.734C164.801 323.453 164.572 323.24 164.28 323.094C163.988 322.943 163.663 322.87 163.304 322.875ZM184.542 334.469H182.574V326.844H180.074V325.234H182.574V320.219H184.542V334.469ZM179.839 323.016H175.183V325.375H179.324V326.938H175.183V329.625C176.256 329.615 177.201 329.586 178.019 329.539C178.837 329.487 179.662 329.396 180.495 329.266L180.699 330.859C179.709 331.01 178.725 331.115 177.745 331.172C176.766 331.224 175.626 331.25 174.324 331.25H173.199V321.406H179.839V323.016ZM164.958 356.438H163.036V342.219H164.958V356.438ZM162.083 355.766H160.192V349.172H158.817V347.391H160.192V342.5H162.083V355.766ZM159.145 345.438H158.239V351.352C158.739 351.305 159.119 351.26 159.38 351.219L159.52 352.656C158.525 352.87 157.429 353.013 156.231 353.086C155.038 353.154 153.822 353.188 152.583 353.188L152.364 351.547H153.551V345.438H152.63V343.828H159.145V345.438ZM155.317 351.516C155.38 351.516 155.442 351.513 155.505 351.508C155.567 351.503 155.63 351.5 155.692 351.5C155.848 351.5 156.093 351.49 156.426 351.469V345.438H155.317V351.516ZM177.775 356.469H175.759V342.219H177.775V356.469ZM170.056 343.219C170.769 343.219 171.407 343.427 171.97 343.844C172.538 344.26 172.983 344.852 173.306 345.617C173.629 346.383 173.79 347.271 173.79 348.281C173.79 349.302 173.629 350.198 173.306 350.969C172.983 351.734 172.538 352.326 171.97 352.742C171.407 353.154 170.769 353.359 170.056 353.359C169.327 353.359 168.676 353.154 168.103 352.742C167.53 352.326 167.082 351.734 166.759 350.969C166.441 350.198 166.285 349.302 166.29 348.281C166.285 347.271 166.441 346.383 166.759 345.617C167.082 344.852 167.53 344.26 168.103 343.844C168.676 343.427 169.327 343.219 170.056 343.219ZM170.056 345.016C169.686 345.016 169.36 345.143 169.079 345.398C168.803 345.648 168.59 346.018 168.439 346.508C168.288 346.997 168.212 347.589 168.212 348.281C168.212 348.979 168.288 349.573 168.439 350.062C168.59 350.552 168.803 350.922 169.079 351.172C169.36 351.422 169.686 351.547 170.056 351.547C170.42 351.547 170.738 351.422 171.009 351.172C171.28 350.917 171.491 350.544 171.642 350.055C171.793 349.565 171.868 348.974 171.868 348.281C171.868 347.594 171.793 347.005 171.642 346.516C171.491 346.021 171.277 345.648 171.001 345.398C170.73 345.143 170.415 345.016 170.056 345.016ZM186.701 344.094C186.701 344.802 186.901 345.495 187.302 346.172C187.709 346.849 188.295 347.438 189.06 347.938C189.831 348.438 190.732 348.776 191.763 348.953L190.888 350.609C189.67 350.37 188.607 349.924 187.701 349.273C186.8 348.622 186.115 347.831 185.646 346.898C185.167 347.826 184.474 348.615 183.568 349.266C182.667 349.917 181.612 350.365 180.404 350.609L179.545 348.953C180.56 348.771 181.448 348.43 182.209 347.93C182.969 347.43 183.552 346.841 183.959 346.164C184.365 345.482 184.571 344.792 184.576 344.094V343.062H186.701V344.094ZM192.232 354.688H179.216V353.047H192.232V354.688Z" fill="black"/>
<ellipse cx="297.759" cy="326" rx="44.9729" ry="45" fill="#FFDA40"/>
<path d="M297.561 318.359H292.046V322.453H290.077V318.359H284.592V316.734H297.561V318.359ZM296.374 311.422H292.108C292.186 311.859 292.421 312.286 292.811 312.703C293.202 313.12 293.743 313.482 294.436 313.789C295.129 314.096 295.941 314.302 296.874 314.406L296.155 315.969C294.983 315.833 293.962 315.542 293.092 315.094C292.228 314.646 291.556 314.086 291.077 313.414C290.603 314.086 289.928 314.646 289.053 315.094C288.184 315.542 287.155 315.833 285.967 315.969L285.249 314.406C286.181 314.302 286.993 314.096 287.686 313.789C288.384 313.482 288.931 313.12 289.327 312.703C289.723 312.286 289.962 311.859 290.046 311.422H285.764V309.859H290.077V308.234H292.046V309.859H296.374V311.422ZM310.941 317.672H297.925V316.078H303.441V314.984H299.55V311.062H307.362V310.062H299.519V308.531H309.362V312.469H301.534V313.469H309.628V314.984H305.425V316.078H310.941V317.672ZM309.675 322.516H299.566V318.391H301.566V320.922H309.675V322.516ZM287.921 331.266C288.467 331.266 288.967 331.383 289.421 331.617C289.874 331.846 290.249 332.174 290.546 332.602C290.848 333.023 291.048 333.516 291.147 334.078H292.092V330.438H293.936V340.375H292.092V335.703H291.131C291.022 336.245 290.816 336.721 290.514 337.133C290.212 337.539 289.837 337.857 289.389 338.086C288.941 338.31 288.452 338.422 287.921 338.422C287.296 338.422 286.736 338.271 286.241 337.969C285.746 337.661 285.358 337.237 285.077 336.695C284.796 336.148 284.655 335.531 284.655 334.844C284.655 334.141 284.796 333.518 285.077 332.977C285.358 332.435 285.746 332.016 286.241 331.719C286.736 331.417 287.296 331.266 287.921 331.266ZM287.921 332.953C287.629 332.953 287.371 333.031 287.147 333.188C286.923 333.339 286.749 333.557 286.624 333.844C286.499 334.125 286.436 334.458 286.436 334.844C286.436 335.427 286.572 335.883 286.842 336.211C287.113 336.539 287.473 336.703 287.921 336.703C288.207 336.703 288.465 336.63 288.694 336.484C288.923 336.339 289.103 336.125 289.233 335.844C289.363 335.562 289.431 335.229 289.436 334.844C289.431 334.464 289.361 334.13 289.225 333.844C289.095 333.557 288.915 333.339 288.686 333.188C288.462 333.031 288.207 332.953 287.921 332.953ZM296.811 340.812H294.921V330.219H296.811V340.812ZM297.171 344.188H287.171V339.438H289.171V342.594H297.171V344.188ZM303.487 333.031C303.487 333.62 303.61 334.188 303.855 334.734C304.105 335.276 304.482 335.763 304.987 336.195C305.498 336.622 306.128 336.948 306.878 337.172L305.862 338.734C305.086 338.49 304.415 338.125 303.847 337.641C303.279 337.156 302.831 336.583 302.503 335.922C302.17 336.641 301.711 337.266 301.128 337.797C300.545 338.328 299.847 338.729 299.034 339L298.003 337.438C298.763 337.193 299.401 336.841 299.917 336.383C300.433 335.924 300.818 335.406 301.073 334.828C301.329 334.25 301.456 333.651 301.456 333.031V332.828H298.534V331.234H306.347V332.828H303.487V333.031ZM309.847 340.516H307.847V330.234H309.847V340.516ZM310.222 344.188H300.316V339.578H302.331V342.594H310.222V344.188Z" fill="black"/>
<rect x="396.663" y="289" width="73.9555" height="74" fill="#FD2626"/>
<path d="M426.489 312.094C426.489 312.88 426.622 313.654 426.888 314.414C427.159 315.169 427.562 315.849 428.099 316.453C428.635 317.057 429.286 317.521 430.052 317.844L428.974 319.406C428.156 319.062 427.456 318.557 426.872 317.891C426.289 317.224 425.831 316.445 425.497 315.555C425.169 316.523 424.708 317.375 424.114 318.109C423.521 318.839 422.818 319.391 422.005 319.766L420.864 318.188C421.625 317.849 422.273 317.357 422.81 316.711C423.351 316.065 423.758 315.341 424.028 314.539C424.304 313.732 424.443 312.917 424.443 312.094V311.219H421.427V309.594H429.458V311.219H426.489V312.094ZM432.88 322.438H430.864V308.219H432.88V322.438ZM439.775 310.234C439.77 310.849 439.884 311.432 440.119 311.984C440.358 312.536 440.728 313.029 441.228 313.461C441.733 313.888 442.364 314.214 443.119 314.438L442.119 316C441.327 315.75 440.647 315.383 440.08 314.898C439.517 314.414 439.072 313.839 438.744 313.172C438.416 313.891 437.96 314.513 437.377 315.039C436.793 315.56 436.093 315.953 435.275 316.219L434.275 314.656C435.035 314.411 435.671 314.06 436.181 313.602C436.697 313.143 437.077 312.625 437.322 312.047C437.572 311.464 437.697 310.859 437.697 310.234V308.875H439.775V310.234ZM446.228 322.438H444.228V318.906H436.447V317.312H446.228V322.438ZM446.228 316.703H444.228V308.219H446.228V316.703ZM416.581 334.797H418.55V331.5H420.362V335.406H421.784V330.453H423.659V343.812H421.784V337.031H420.362V341.062H414.706V331.5H416.581V334.797ZM418.55 339.438V336.375H416.581V339.438H418.55ZM426.628 344.438H424.722V330.219H426.628V344.438ZM439.554 344.469H437.538V330.219H439.554V344.469ZM431.835 331.219C432.549 331.219 433.187 331.427 433.749 331.844C434.317 332.26 434.762 332.852 435.085 333.617C435.408 334.383 435.57 335.271 435.57 336.281C435.57 337.302 435.408 338.198 435.085 338.969C434.762 339.734 434.317 340.326 433.749 340.742C433.187 341.154 432.549 341.359 431.835 341.359C431.106 341.359 430.455 341.154 429.882 340.742C429.309 340.326 428.861 339.734 428.538 338.969C428.221 338.198 428.064 337.302 428.07 336.281C428.064 335.271 428.221 334.383 428.538 333.617C428.861 332.852 429.309 332.26 429.882 331.844C430.455 331.427 431.106 331.219 431.835 331.219ZM431.835 333.016C431.466 333.016 431.14 333.143 430.859 333.398C430.583 333.648 430.369 334.018 430.218 334.508C430.067 334.997 429.992 335.589 429.992 336.281C429.992 336.979 430.067 337.573 430.218 338.062C430.369 338.552 430.583 338.922 430.859 339.172C431.14 339.422 431.466 339.547 431.835 339.547C432.2 339.547 432.518 339.422 432.788 339.172C433.059 338.917 433.27 338.544 433.421 338.055C433.572 337.565 433.648 336.974 433.648 336.281C433.648 335.594 433.572 335.005 433.421 334.516C433.27 334.021 433.057 333.648 432.781 333.398C432.51 333.143 432.195 333.016 431.835 333.016ZM448.48 332.094C448.48 332.802 448.681 333.495 449.082 334.172C449.488 334.849 450.074 335.438 450.84 335.938C451.611 336.438 452.512 336.776 453.543 336.953L452.668 338.609C451.449 338.37 450.387 337.924 449.48 337.273C448.579 336.622 447.894 335.831 447.426 334.898C446.946 335.826 446.254 336.615 445.348 337.266C444.446 337.917 443.392 338.365 442.183 338.609L441.324 336.953C442.34 336.771 443.228 336.43 443.988 335.93C444.749 335.43 445.332 334.841 445.738 334.164C446.144 333.482 446.35 332.792 446.355 332.094V331.062H448.48V332.094ZM454.012 342.688H440.996V341.047H454.012V342.688Z" fill="black"/>
<path d="M243.802 316L228.802 307.34V324.66L243.802 316ZM207.823 317.5H230.302V314.5H207.823V317.5Z" fill="#858899"/>
<path d="M99.7142 272.219V279.516H97.7299V272.219H99.7142ZM99.7299 280.078V283.875H92.1674V284.812H100.12V286.344H90.2142V282.453H97.7455V281.594H90.183V280.078H99.7299ZM96.2299 272.875V274.469H93.3861C93.5267 275.891 94.5892 277.266 96.7767 277.844L95.8236 279.375C94.1752 278.922 93.0346 277.969 92.4017 276.75C91.7455 278.109 90.5424 279.18 88.7924 279.672L87.8861 278.094C90.1049 277.484 91.1908 275.984 91.3236 274.469H88.4174V272.875H96.2299ZM105.781 273.172C108.031 273.156 109.719 274.625 109.719 276.656C109.719 278.703 108.031 280.156 105.781 280.156C103.531 280.156 101.828 278.703 101.828 276.656C101.828 274.625 103.531 273.156 105.781 273.172ZM105.781 274.891C104.656 274.891 103.797 275.547 103.812 276.656C103.797 277.781 104.656 278.422 105.781 278.422C106.906 278.422 107.766 277.781 107.781 276.656C107.766 275.547 106.922 274.891 105.781 274.891ZM113.125 272.219V286.469H111.141V272.219H113.125ZM101.234 281.938C103.766 281.953 107.281 281.906 110.328 281.484L110.484 282.922C107.328 283.531 103.953 283.562 101.469 283.562L101.234 281.938Z" fill="black"/>
<path d="M99.1049 367.219V370.297H101.027V371.938H99.1049V374.828H97.1049V367.219H99.1049ZM94.7142 368.078V369.672H90.3705V372.891C92.9408 372.875 94.3549 372.797 95.9486 372.438L96.1517 374.047C94.3705 374.422 92.7299 374.5 89.5736 374.5H88.3705V368.078H94.7142ZM91.7611 375.516V376.828H97.1049V375.516H99.1049V381.266H89.7611V375.516H91.7611ZM91.7611 379.672H97.1049V378.391H91.7611V379.672ZM113.156 367.234V377.719H111.172V374.25H108.547V375.469H101.781V368.156H103.781V370.344H106.578V368.156H108.547V369.609H111.172V367.234H113.156ZM113.453 379.594V381.188H103.687V376.672H105.703V379.594H113.453ZM103.781 373.906H106.578V371.859H103.781V373.906ZM108.547 372.656H111.172V371.219H108.547V372.656Z" fill="black"/>
<path d="M118.979 305L103.979 296.34V313.66L118.979 305ZM83.0002 306.5H105.479V303.5H83.0002V306.5Z" fill="#858899"/>
<path d="M83.0002 348L98.0002 356.66V339.34L83.0002 348ZM96.5002 349.5H118.979V346.5H96.5002V349.5Z" fill="#858899"/>
<path d="M207.823 348L222.823 356.66V339.34L207.823 348ZM221.323 349.5H243.802V346.5H221.323V349.5Z" fill="#858899"/>
<path d="M351.701 316L366.701 324.66V307.34L351.701 316ZM365.201 317.5H387.68V314.5H365.201V317.5Z" fill="#858899"/>
<path d="M433.632 273L445.179 253H422.085L433.632 273ZM463.632 166H505.546V162H463.632V166ZM533.546 194V240.673H537.546V194H533.546ZM435.632 255V194H431.632V255H435.632ZM505.546 166C521.01 166 533.546 178.536 533.546 194H537.546C537.546 176.327 523.219 162 505.546 162V166ZM463.632 162C445.959 162 431.632 176.327 431.632 194H435.632C435.632 178.536 448.168 166 463.632 166V162Z" fill="#002073"/>
</svg>
